<svg width="55" height="48" viewBox="0 0 55 48" fill="none" xmlns="http://www.w3.org/2000/svg">
<g opacity="0.6">
<path fill-rule="evenodd" clip-rule="evenodd" d="M50.4167 11.8745C48.7313 12.5309 46.9188 12.9764 45.0167 13.1764C46.9583 12.1527 48.4479 10.5345 49.15 8.60545C47.3333 9.55091 45.3208 10.2382 43.1792 10.6091C41.4646 9.00364 39.0208 8 36.3167 8C31.1229 8 26.9125 11.7 26.9125 16.2618C26.9125 16.9091 26.9958 17.54 27.1563 18.1455C19.3417 17.8 12.4125 14.5109 7.775 9.51273C6.96459 10.7327 6.5 12.1527 6.5 13.6655C6.5 16.5327 8.16042 19.0618 10.6833 20.5436C9.14375 20.5 7.69375 20.1291 6.425 19.5091C6.425 19.5436 6.425 19.5782 6.425 19.6145C6.425 23.6164 9.66459 26.9564 13.9667 27.7145C13.1771 27.9036 12.3479 28.0055 11.4896 28.0055C10.8833 28.0055 10.2958 27.9527 9.72084 27.8564C10.9167 31.1382 14.3896 33.5273 18.5042 33.5945C15.2875 35.8109 11.2313 37.1309 6.82709 37.1309C6.06667 37.1309 5.31875 37.0927 4.58334 37.0164C8.74375 39.36 13.6875 40.7273 18.9979 40.7273C36.2938 40.7273 45.7521 28.1382 45.7521 17.22C45.7521 16.8618 45.7417 16.5055 45.725 16.1509C47.5625 14.9873 49.1563 13.5309 50.4167 11.8745Z" fill="#E8E5E5"/>
</g>
</svg>
