<svg width="55" height="48" viewBox="0 0 55 48" fill="none" xmlns="http://www.w3.org/2000/svg">
<g opacity="0.6">
<path fill-rule="evenodd" clip-rule="evenodd" d="M45.2216 22.0389C45.8747 21.2649 46.3904 20.6449 46.7731 20.1769C49.5254 16.8169 50.7171 14.6709 50.3527 13.7349L50.2083 13.5149C50.1143 13.3849 49.8668 13.2629 49.4704 13.1549C49.0716 13.0449 48.5629 13.0269 47.9418 13.0989L41.0691 13.1429C40.911 13.1289 40.7506 13.1329 40.5924 13.1549C40.432 13.1769 40.3289 13.1989 40.2808 13.2189C40.2349 13.2429 40.196 13.2609 40.1616 13.2749L40.0676 13.3409C39.9874 13.3829 39.9003 13.4609 39.8064 13.5709C39.7078 13.6789 39.6299 13.8069 39.5658 13.9549C38.8187 15.7209 37.9662 17.3649 37.0128 18.8829C36.4239 19.7889 35.883 20.5749 35.3903 21.2389C34.8976 21.9049 34.4828 22.3929 34.1482 22.7069C33.8159 23.0209 33.5134 23.2729 33.243 23.4629C32.9703 23.6529 32.7641 23.7329 32.622 23.7049C32.4799 23.6749 32.3424 23.6469 32.2164 23.6149C31.9941 23.4849 31.8153 23.3069 31.6801 23.0789C31.5426 22.8549 31.4532 22.5689 31.4051 22.2249C31.357 21.8829 31.3295 21.5849 31.3203 21.3369C31.3134 21.0889 31.318 20.7389 31.3341 20.2849C31.3501 19.8329 31.357 19.5269 31.357 19.3649C31.357 18.8109 31.3684 18.2069 31.3936 17.5569C31.4166 16.9089 31.4372 16.3929 31.4532 16.0129C31.4693 15.6349 31.4761 15.2309 31.4761 14.8089C31.4761 14.3849 31.4486 14.0529 31.3936 13.8109C31.3364 13.5709 31.2539 13.3369 31.1416 13.1109C31.0293 12.8849 30.8666 12.7089 30.6534 12.5849C30.438 12.4609 30.1699 12.3609 29.8536 12.2889C29.0103 12.1129 27.9355 12.0189 26.6315 12.0029C23.673 11.9749 21.7709 12.1509 20.9299 12.5289C20.5953 12.6909 20.2928 12.9109 20.0223 13.1869C19.7359 13.5089 19.6946 13.6849 19.9009 13.7129C20.8588 13.8449 21.5326 14.1589 21.9313 14.6549L22.0734 14.9169C22.1857 15.1089 22.2957 15.4449 22.408 15.9269C22.518 16.4069 22.5913 16.9409 22.6234 17.5249C22.7036 18.5929 22.7036 19.5049 22.6234 20.2649C22.5432 21.0229 22.4699 21.6149 22.3965 22.0389C22.3232 22.4609 22.2178 22.8049 22.0757 23.0669C21.9313 23.3329 21.8351 23.4929 21.7869 23.5509C21.7388 23.6089 21.6999 23.6449 21.6678 23.6609C21.4615 23.7329 21.2461 23.7689 21.0238 23.7689C20.8015 23.7689 20.5311 23.6669 20.2126 23.4609C19.894 23.2589 19.564 22.9769 19.2226 22.6189C18.8811 22.2609 18.4938 21.7609 18.0653 21.1169C17.6367 20.4749 17.1898 19.7149 16.7292 18.8389L16.3465 18.2029C16.1105 17.7949 15.7827 17.2009 15.3702 16.4189C14.9555 15.6369 14.5888 14.8809 14.2725 14.1509C14.1442 13.8449 13.9517 13.6109 13.6996 13.4489L13.5782 13.3829C13.5002 13.3249 13.3719 13.2629 13.1977 13.1989C13.0236 13.1309 12.8402 13.0849 12.6477 13.0549L6.10958 13.0989C5.44042 13.0989 4.98895 13.2389 4.74833 13.5149L4.65437 13.6469C4.60625 13.7209 4.58333 13.8369 4.58333 13.9969C4.58333 14.1589 4.63145 14.3549 4.7277 14.5889C5.68104 16.6489 6.71917 18.6349 7.8398 20.5489C8.96272 22.4609 9.93668 24.0029 10.764 25.1709C11.5913 26.3409 12.4323 27.4429 13.294 28.4809C14.1534 29.519 14.7217 30.181 14.999 30.473C15.2786 30.767 15.4963 30.985 15.6544 31.131L16.2525 31.659C16.633 32.009 17.1944 32.429 17.9346 32.917C18.6726 33.407 19.493 33.889 20.3936 34.363C21.2896 34.839 22.3369 35.225 23.5309 35.525C24.7226 35.825 25.8845 35.945 27.0142 35.887H29.7574C30.3166 35.843 30.7382 35.683 31.0224 35.405L31.1186 35.295C31.1828 35.209 31.2424 35.073 31.2974 34.891C31.3524 34.707 31.3822 34.507 31.3822 34.289C31.3661 33.661 31.4166 33.093 31.5357 32.589C31.6572 32.085 31.7901 31.707 31.9414 31.449C32.0926 31.195 32.2645 30.979 32.457 30.803C32.6472 30.627 32.7801 30.523 32.8626 30.487C32.9405 30.451 33.0047 30.425 33.0528 30.409C33.4332 30.293 33.8824 30.405 34.4003 30.749C34.9182 31.093 35.4041 31.515 35.8555 32.019C36.3093 32.525 36.8547 33.089 37.4918 33.717C38.1266 34.347 38.6835 34.813 39.1601 35.121L39.6391 35.383C39.9553 35.559 40.3701 35.719 40.8812 35.865C41.3876 36.011 41.8345 36.049 42.2172 35.975L48.3268 35.887C48.9296 35.887 49.3993 35.795 49.7339 35.613C50.0662 35.431 50.2656 35.229 50.3298 35.011C50.3939 34.791 50.3962 34.545 50.3412 34.265C50.2862 33.989 50.2289 33.795 50.1762 33.687C50.1189 33.577 50.0662 33.485 50.0181 33.411C49.2252 32.099 47.7035 30.483 45.4599 28.5709L45.4118 28.527L45.3889 28.5029L45.366 28.483H45.3408C44.3233 27.5909 43.6793 26.9929 43.4089 26.6849C42.9162 26.1029 42.8039 25.5089 43.0766 24.9109C43.2645 24.4569 43.9795 23.4989 45.2216 22.0389Z" fill="#E8E5E5"/>
</g>
</svg>
