<svg width="55" height="48" viewBox="0 0 55 48" fill="none" xmlns="http://www.w3.org/2000/svg">
<g opacity="0.6">
<path fill-rule="evenodd" clip-rule="evenodd" d="M23.6807 30V18.3334L35.1391 24.1667L23.6807 30ZM49.9583 16.1393C49.9583 16.1393 49.5115 13.3658 48.1365 12.1448C46.3948 10.5418 44.44 10.5175 43.544 10.4225C37.1319 10.0162 27.5092 10 27.5092 10H27.4908C27.4908 10 17.8704 10.0162 11.4561 10.4225C10.56 10.5175 8.60751 10.5337 6.86355 12.1367C5.48855 13.3577 5.04168 16.1332 5.04168 16.1332C5.04168 16.1332 4.58334 19.3939 4.58334 22.6505V25.703C4.58334 28.9596 5.04168 32.2163 5.04168 32.2163C5.04168 32.2163 5.48855 34.9898 6.86355 36.2108C8.60751 37.8118 10.8969 37.7612 11.9167 37.929C15.5833 38.2383 27.5 38.3333 27.5 38.3333C27.5 38.3333 37.1319 38.3212 43.544 37.9149C44.44 37.8199 46.3948 37.8118 48.1365 36.2108C49.5115 34.9898 49.9583 32.2163 49.9583 32.2163C49.9583 32.2163 50.4167 28.9596 50.4167 25.703V22.6505C50.4167 19.3939 49.9583 16.1393 49.9583 16.1393Z" fill="#E8E5E5"/>
</g>
</svg>
