<svg width="56" height="53" viewBox="0 0 56 53" fill="none" xmlns="http://www.w3.org/2000/svg">
<g opacity="0.6">
<path d="M17.6296 4.41675C10.4715 4.41675 4.66666 9.91059 4.66666 16.6853V36.3149C4.66666 43.0896 10.4715 48.5834 17.6296 48.5834H38.3704C45.5285 48.5834 51.3333 43.0896 51.3333 36.3149V16.6853C51.3333 9.91059 45.5285 4.41675 38.3704 4.41675H17.6296ZM43.5555 9.32416C44.9867 9.32416 46.1481 10.4234 46.1481 11.7779C46.1481 13.1323 44.9867 14.2316 43.5555 14.2316C42.1244 14.2316 40.963 13.1323 40.963 11.7779C40.963 10.4234 42.1244 9.32416 43.5555 9.32416ZM28 14.2316C35.1581 14.2316 40.963 19.7254 40.963 26.5001C40.963 33.2748 35.1581 38.7686 28 38.7686C20.8418 38.7686 15.037 33.2748 15.037 26.5001C15.037 19.7254 20.8418 14.2316 28 14.2316ZM28 19.139C25.9372 19.139 23.9589 19.9145 22.5003 21.295C21.0417 22.6755 20.2222 24.5478 20.2222 26.5001C20.2222 28.4524 21.0417 30.3247 22.5003 31.7052C23.9589 33.0857 25.9372 33.8612 28 33.8612C30.0628 33.8612 32.0411 33.0857 33.4997 31.7052C34.9583 30.3247 35.7778 28.4524 35.7778 26.5001C35.7778 24.5478 34.9583 22.6755 33.4997 21.295C32.0411 19.9145 30.0628 19.139 28 19.139Z" fill="#E8E5E5"/>
</g>
</svg>
