<svg width="135" height="120" viewBox="0 0 135 120" fill="none" xmlns="http://www.w3.org/2000/svg">
<path d="M2.88 79.994V85.142L7.992 79.994H9.792L4.176 85.592L9.972 92H8.136L3.222 86.492L2.88 86.834V92H1.548V79.994H2.88ZM19.8065 92L18.4025 88.616H13.2905L11.8505 92H10.3745L15.9005 79.418L21.2825 92H19.8065ZM13.8125 87.356H17.8805L15.8645 82.55L13.8125 87.356ZM22.9757 79.994H31.7957V92H30.4637V81.254H24.3077V92H22.9757V79.994ZM43.2457 92V82.838L34.8937 92.54V79.994H36.2257V89.192L44.5777 79.49V92H43.2457ZM53.541 81.254H50.625V92H49.293V81.254H46.377V79.994H53.541V81.254ZM62.5565 92L61.1525 88.616H56.0405L54.6005 92H53.1245L58.6505 79.418L64.0325 92H62.5565ZM56.5625 87.356H60.6305L58.6145 82.55L56.5625 87.356ZM67.1255 79.994H74.4335V92H73.1015V81.254H68.4575V87.698C68.4575 88.262 68.4515 88.688 68.4395 88.976C68.4275 89.252 68.3315 89.648 68.1515 90.164C67.9835 90.668 67.7255 91.076 67.3775 91.388C66.8375 91.868 66.1535 92.108 65.3255 92.108C65.1335 92.108 64.8935 92.072 64.6055 92V90.74C64.8455 90.812 65.0675 90.848 65.2715 90.848C65.7395 90.848 66.1295 90.692 66.4415 90.38C66.6575 90.164 66.8195 89.858 66.9275 89.462C67.0355 89.054 67.0955 88.712 67.1075 88.436C67.1195 88.16 67.1255 87.734 67.1255 87.158V79.994ZM77.5382 92V79.994H78.8702V84.98H80.4902C83.2502 84.98 84.6302 86.108 84.6302 88.364C84.6302 89.492 84.2762 90.38 83.5682 91.028C82.8722 91.676 81.9302 92 80.7422 92H77.5382ZM78.8702 86.24V90.74H80.4182C81.4382 90.74 82.1762 90.518 82.6322 90.074C83.0522 89.678 83.2622 89.108 83.2622 88.364C83.2622 87.5 82.9382 86.894 82.2902 86.546C81.9182 86.342 81.2462 86.24 80.2742 86.24H78.8702ZM88.2745 79.994V84.872H94.4305V79.994H95.7625V92H94.4305V86.132H88.2745V92H86.9425V79.994H88.2745ZM108.887 90.434C107.687 91.622 106.211 92.216 104.459 92.216C102.707 92.216 101.225 91.622 100.013 90.434C98.8125 89.246 98.2125 87.77 98.2125 86.006C98.2125 84.23 98.8185 82.754 100.031 81.578C101.243 80.39 102.719 79.796 104.459 79.796C106.199 79.796 107.675 80.39 108.887 81.578C110.099 82.754 110.705 84.23 110.705 86.006C110.705 87.77 110.099 89.246 108.887 90.434ZM107.915 82.496C106.967 81.536 105.815 81.056 104.459 81.056C103.103 81.056 101.951 81.536 101.003 82.496C100.055 83.456 99.5805 84.626 99.5805 86.006C99.5805 87.386 100.055 88.556 101.003 89.516C101.951 90.476 103.103 90.956 104.459 90.956C105.815 90.956 106.967 90.476 107.915 89.516C108.863 88.556 109.337 87.386 109.337 86.006C109.337 84.626 108.863 83.456 107.915 82.496ZM119.38 79.994V81.254H114.484V84.818H119.236V86.078H114.484V90.74H119.38V92H113.152V79.994H119.38ZM10.728 103.984V105.64C10.248 105.16 9.726 104.788 9.162 104.524C8.478 104.212 7.788 104.056 7.092 104.056C5.712 104.056 4.56 104.542 3.636 105.514C2.724 106.474 2.268 107.656 2.268 109.06C2.268 110.572 2.766 111.766 3.762 112.642C4.77 113.518 5.886 113.956 7.11 113.956C7.878 113.956 8.622 113.77 9.342 113.398C9.846 113.146 10.308 112.81 10.728 112.39V114.046C9.636 114.826 8.43 115.216 7.11 115.216C5.334 115.216 3.852 114.622 2.664 113.434C1.488 112.246 0.9 110.782 0.9 109.042C0.9 107.254 1.494 105.766 2.682 104.578C3.882 103.39 5.382 102.796 7.182 102.796C8.502 102.796 9.684 103.192 10.728 103.984ZM19.0527 104.254H16.1367V115H14.8047V104.254H11.8887V102.994H19.0527V104.254ZM20.8488 102.994H23.0268C24.3948 102.994 25.4028 103.276 26.0508 103.84C26.7828 104.464 27.1488 105.322 27.1488 106.414C27.1488 107.35 26.8308 108.148 26.1948 108.808C25.5708 109.456 24.6228 109.78 23.3508 109.78H22.1808V115H20.8488V102.994ZM22.1808 104.254V108.52H23.2788C24.0708 108.52 24.6888 108.328 25.1328 107.944C25.5888 107.56 25.8168 107.026 25.8168 106.342C25.8168 104.95 24.9348 104.254 23.1708 104.254H22.1808ZM39.0838 113.434C37.8838 114.622 36.4078 115.216 34.6558 115.216C32.9038 115.216 31.4218 114.622 30.2098 113.434C29.0098 112.246 28.4098 110.77 28.4098 109.006C28.4098 107.23 29.0158 105.754 30.2278 104.578C31.4398 103.39 32.9158 102.796 34.6558 102.796C36.3958 102.796 37.8718 103.39 39.0838 104.578C40.2958 105.754 40.9018 107.23 40.9018 109.006C40.9018 110.77 40.2958 112.246 39.0838 113.434ZM38.1118 105.496C37.1638 104.536 36.0118 104.056 34.6558 104.056C33.2998 104.056 32.1478 104.536 31.1998 105.496C30.2518 106.456 29.7778 107.626 29.7778 109.006C29.7778 110.386 30.2518 111.556 31.1998 112.516C32.1478 113.476 33.2998 113.956 34.6558 113.956C36.0118 113.956 37.1638 113.476 38.1118 112.516C39.0598 111.556 39.5338 110.386 39.5338 109.006C39.5338 107.626 39.0598 106.456 38.1118 105.496ZM51.7008 115V105.838L43.3488 115.54V102.994H44.6808V112.192L53.0328 102.49V115H51.7008ZM61.9961 104.254H59.0801V115H57.7481V104.254H54.8321V102.994H61.9961V104.254ZM70.0201 102.994V104.254H65.1241V107.818H69.8761V109.078H65.1241V113.74H70.0201V115H63.7921V102.994H70.0201ZM73.6997 102.994H81.0077V115H79.6757V104.254H75.0317V110.698C75.0317 111.262 75.0257 111.688 75.0137 111.976C75.0017 112.252 74.9057 112.648 74.7257 113.164C74.5577 113.668 74.2997 114.076 73.9517 114.388C73.4117 114.868 72.7277 115.108 71.8997 115.108C71.7077 115.108 71.4677 115.072 71.1797 115V113.74C71.4197 113.812 71.6417 113.848 71.8457 113.848C72.3137 113.848 72.7037 113.692 73.0157 113.38C73.2317 113.164 73.3937 112.858 73.5017 112.462C73.6097 112.054 73.6697 111.712 73.6817 111.436C73.6937 111.16 73.6997 110.734 73.6997 110.158V102.994ZM84.1125 115V102.994H85.4445V107.98H87.0645C89.8245 107.98 91.2045 109.108 91.2045 111.364C91.2045 112.492 90.8505 113.38 90.1425 114.028C89.4465 114.676 88.5045 115 87.3165 115H84.1125ZM85.4445 109.24V113.74H86.9925C88.0125 113.74 88.7505 113.518 89.2065 113.074C89.6265 112.678 89.8365 112.108 89.8365 111.364C89.8365 110.5 89.5125 109.894 88.8645 109.546C88.4925 109.342 87.8205 109.24 86.8485 109.24H85.4445ZM102.345 103.984V105.64C101.865 105.16 101.343 104.788 100.779 104.524C100.095 104.212 99.4052 104.056 98.7092 104.056C97.3292 104.056 96.1772 104.542 95.2532 105.514C94.3412 106.474 93.8852 107.656 93.8852 109.06C93.8852 110.572 94.3832 111.766 95.3792 112.642C96.3872 113.518 97.5032 113.956 98.7272 113.956C99.4952 113.956 100.239 113.77 100.959 113.398C101.463 113.146 101.925 112.81 102.345 112.39V114.046C101.253 114.826 100.047 115.216 98.7272 115.216C96.9512 115.216 95.4692 114.622 94.2812 113.434C93.1052 112.246 92.5172 110.782 92.5172 109.042C92.5172 107.254 93.1112 105.766 94.2992 104.578C95.4992 103.39 96.9992 102.796 98.7992 102.796C100.119 102.796 101.301 103.192 102.345 103.984ZM110.67 104.254H107.754V115H106.422V104.254H103.506V102.994H110.67V104.254ZM112.466 102.994H114.626C115.826 102.994 116.744 103.246 117.38 103.75C118.1 104.302 118.46 105.13 118.46 106.234C118.46 107.266 118.064 108.052 117.272 108.592C118.04 108.784 118.61 109.174 118.982 109.762C119.366 110.338 119.558 110.956 119.558 111.616C119.558 112.156 119.438 112.654 119.198 113.11C118.97 113.566 118.682 113.932 118.334 114.208C117.662 114.736 116.702 115 115.454 115H112.466V102.994ZM113.798 104.254V108.268H114.806C114.986 108.268 115.16 108.262 115.328 108.25C115.496 108.226 115.694 108.178 115.922 108.106C116.162 108.022 116.366 107.914 116.534 107.782C116.714 107.65 116.864 107.452 116.984 107.188C117.104 106.924 117.164 106.618 117.164 106.27C117.164 105.898 117.092 105.58 116.948 105.316C116.804 105.04 116.642 104.836 116.462 104.704C116.282 104.572 116.066 104.47 115.814 104.398C115.562 104.326 115.37 104.284 115.238 104.272C115.106 104.26 114.974 104.254 114.842 104.254H113.798ZM113.798 109.456V113.74H115.328C116.3 113.74 117.002 113.572 117.434 113.236C117.962 112.852 118.226 112.3 118.226 111.58C118.226 110.776 117.884 110.188 117.2 109.816C116.768 109.576 116.09 109.456 115.166 109.456H113.798ZM132.037 113.434C130.837 114.622 129.361 115.216 127.609 115.216C125.857 115.216 124.375 114.622 123.163 113.434C121.963 112.246 121.363 110.77 121.363 109.006C121.363 107.23 121.969 105.754 123.181 104.578C124.393 103.39 125.869 102.796 127.609 102.796C129.349 102.796 130.825 103.39 132.037 104.578C133.249 105.754 133.855 107.23 133.855 109.006C133.855 110.77 133.249 112.246 132.037 113.434ZM131.065 105.496C130.117 104.536 128.965 104.056 127.609 104.056C126.253 104.056 125.101 104.536 124.153 105.496C123.205 106.456 122.731 107.626 122.731 109.006C122.731 110.386 123.205 111.556 124.153 112.516C125.101 113.476 126.253 113.956 127.609 113.956C128.965 113.956 130.117 113.476 131.065 112.516C132.013 111.556 132.487 110.386 132.487 109.006C132.487 107.626 132.013 106.456 131.065 105.496Z" fill="white"/>
<path d="M36.7334 37.7C36.7334 37.1665 36.3004 36.7334 35.7668 36.7334C35.2332 36.7334 34.8002 37.1665 34.8002 37.7V39.6334C34.8002 40.167 35.2332 40.6 35.7668 40.6C36.3004 40.6 36.7334 40.167 36.7334 39.6334V37.7Z" fill="white"/>
<path d="M35.7666 48.333C35.2331 48.333 34.8 48.7661 34.8 49.2996V53.1663C34.8 53.6998 35.2331 54.1329 35.7666 54.1329C36.3002 54.1329 36.7332 53.6998 36.7332 53.1663V49.2996C36.7333 48.7661 36.3003 48.333 35.7666 48.333Z" fill="white"/>
<path d="M40.6 26.1004C40.6 25.5669 40.1669 25.1338 39.6334 25.1338C39.0998 25.1338 38.6667 25.5669 38.6667 26.1004V28.0338C38.6667 28.5673 39.0998 29.0004 39.6334 29.0004C40.1669 29.0004 40.6 28.5673 40.6 28.0338V26.1004Z" fill="white"/>
<path d="M36.7334 31.9002C36.7334 31.3667 36.3004 30.9336 35.7668 30.9336C35.2332 30.9336 34.8002 31.3667 34.8002 31.9002V33.8336C34.8002 34.3671 35.2332 34.8002 35.7668 34.8002C36.3004 34.8002 36.7334 34.3671 36.7334 33.8336V31.9002Z" fill="white"/>
<path d="M36.7334 43.4998C36.7334 42.9663 36.3003 42.5332 35.7667 42.5332C35.2332 42.5332 34.8 42.9663 34.8 43.4998V45.4332C34.8 45.9668 35.2331 46.3998 35.7666 46.3998C36.3002 46.3998 36.7332 45.9668 36.7332 45.4332V43.4998H36.7334Z" fill="white"/>
<path d="M40.6 31.9002C40.6 31.3667 40.1669 30.9336 39.6334 30.9336C39.0998 30.9336 38.6667 31.3667 38.6667 31.9002V33.8336C38.6667 34.3671 39.0998 34.8002 39.6334 34.8002C40.1669 34.8002 40.6 34.3671 40.6 33.8336V31.9002Z" fill="white"/>
<path d="M32.8666 26.1004C32.8666 25.5669 32.4335 25.1338 31.9 25.1338C31.3664 25.1338 30.9333 25.5669 30.9333 26.1004V28.0338C30.9333 28.5673 31.3664 29.0004 31.9 29.0004C32.4335 29.0004 32.8666 28.5673 32.8666 28.0338V26.1004Z" fill="white"/>
<path d="M36.7334 26.1004C36.7334 25.5669 36.3004 25.1338 35.7668 25.1338C35.2332 25.1338 34.8002 25.5669 34.8002 26.1004V28.0338C34.8002 28.5673 35.2332 29.0004 35.7668 29.0004C36.3004 29.0004 36.7334 28.5673 36.7334 28.0338V26.1004Z" fill="white"/>
<path d="M40.6 16.4332V14.4998C40.6 13.9663 40.1669 13.5332 39.6334 13.5332C39.0998 13.5332 38.6667 13.9663 38.6667 14.4998V16.4332C38.6667 16.9668 39.0998 17.3998 39.6334 17.3998C40.1669 17.3998 40.6 16.9668 40.6 16.4332Z" fill="white"/>
<path d="M32.8666 31.9002C32.8666 31.3667 32.4335 30.9336 31.9 30.9336C31.3664 30.9336 30.9333 31.3667 30.9333 31.9002V33.8336C30.9333 34.3671 31.3664 34.8002 31.9 34.8002C32.4335 34.8002 32.8666 34.3671 32.8666 33.8336V31.9002Z" fill="white"/>
<path d="M44.4666 14.4998C44.4666 13.9663 44.0335 13.5332 43.5 13.5332C42.9664 13.5332 42.5333 13.9663 42.5333 14.4998V16.4332C42.5333 16.9668 42.9664 17.3998 43.5 17.3998C44.0335 17.3998 44.4666 16.9668 44.4666 16.4332V14.4998Z" fill="white"/>
<path d="M31.9 36.7334C31.3664 36.7334 30.9333 37.1665 30.9333 37.7V39.6334C30.9333 40.167 31.3664 40.6 31.9 40.6C32.4335 40.6 32.8666 40.167 32.8666 39.6334V37.7C32.8666 37.1665 32.4335 36.7334 31.9 36.7334Z" fill="white"/>
<path d="M48.3334 43.4998C48.3334 42.9663 47.9003 42.5332 47.3668 42.5332C46.8332 42.5332 46.4 42.9663 46.4 43.4998V45.4332C46.4 45.9668 46.8331 46.3998 47.3667 46.3998C47.9002 46.3998 48.3333 45.9668 48.3333 45.4332V43.4998H48.3334Z" fill="white"/>
<path d="M47.3667 48.333C46.8331 48.333 46.4 48.7661 46.4 49.2996V53.1663C46.4 53.6998 46.8331 54.1329 47.3667 54.1329C47.9002 54.1329 48.3333 53.6998 48.3333 53.1663V49.2996C48.3334 48.7661 47.9003 48.333 47.3667 48.333Z" fill="white"/>
<path d="M51.2334 36.7334C50.6998 36.7334 50.2667 37.1665 50.2667 37.7V39.6334C50.2667 40.167 50.6998 40.6 51.2334 40.6C51.7669 40.6 52.2 40.167 52.2 39.6334V37.7C52.2 37.1665 51.7669 36.7334 51.2334 36.7334Z" fill="white"/>
<path d="M35.7666 17.3998C36.3002 17.3998 36.7332 16.9667 36.7332 16.4332V12.3548L46.4 9.93808V26.0998C46.4 26.5029 46.6503 26.8634 47.0273 27.0056L54.1334 29.6697V39.6332C54.1334 40.1667 54.5664 40.5998 55.1 40.5998C55.6335 40.5998 56.0666 40.1667 56.0666 39.6332V28.9998C56.0666 28.5967 55.8163 28.2362 55.4393 28.094L48.3332 25.4299V6.76643C48.3332 6.23288 47.9002 5.7998 47.3666 5.7998C46.8331 5.7998 46.4 6.23288 46.4 6.76643V7.94478L35.5318 10.6621C35.1017 10.7693 34.8 11.1561 34.8 11.5997V16.4331C34.8 16.9667 35.2331 17.3998 35.7666 17.3998Z" fill="white"/>
<path d="M52.2 31.9002C52.2 31.3667 51.7669 30.9336 51.2334 30.9336C50.6998 30.9336 50.2667 31.3667 50.2667 31.9002V33.8336C50.2667 34.3671 50.6998 34.8002 51.2334 34.8002C51.7669 34.8002 52.2 34.3671 52.2 33.8336V31.9002Z" fill="white"/>
<path d="M48.3334 31.9002C48.3334 31.3667 47.9003 30.9336 47.3668 30.9336C46.8332 30.9336 46.4001 31.3667 46.4001 31.9002V33.8336C46.4001 34.3671 46.8332 34.8002 47.3668 34.8002C47.9003 34.8002 48.3334 34.3671 48.3334 33.8336V31.9002Z" fill="white"/>
<path d="M40.6 43.4998C40.6 42.9663 40.1669 42.5332 39.6334 42.5332C39.0998 42.5332 38.6667 42.9663 38.6667 43.4998V45.4332C38.6667 45.9668 39.0998 46.3998 39.6334 46.3998C40.1669 46.3998 40.6 45.9668 40.6 45.4332V43.4998Z" fill="white"/>
<path d="M48.3334 37.7C48.3334 37.1665 47.9003 36.7334 47.3668 36.7334C46.8332 36.7334 46.4001 37.1665 46.4001 37.7V39.6334C46.4001 40.167 46.8332 40.6 47.3668 40.6C47.9003 40.6 48.3334 40.167 48.3334 39.6334V37.7Z" fill="white"/>
<path d="M39.6334 48.333C39.0998 48.333 38.6667 48.7661 38.6667 49.2996V53.1663C38.6667 53.6998 39.0998 54.1329 39.6334 54.1329C40.1669 54.1329 40.6 53.6998 40.6 53.1663V49.2996C40.6 48.7661 40.1669 48.333 39.6334 48.333Z" fill="white"/>
<path d="M40.6 37.7C40.6 37.1665 40.1669 36.7334 39.6334 36.7334C39.0998 36.7334 38.6667 37.1665 38.6667 37.7V39.6334C38.6667 40.167 39.0998 40.6 39.6334 40.6C40.1669 40.6 40.6 40.167 40.6 39.6334V37.7Z" fill="white"/>
<path d="M43.5 54.1337C44.0336 54.1337 44.4667 53.7006 44.4667 53.1671V22.2337C44.4667 21.79 44.1641 21.4033 43.7349 21.2961L28.2682 17.4293C27.9812 17.3568 27.6727 17.4225 27.4388 17.6052C27.2038 17.788 27.0667 18.0692 27.0667 18.3669V39.6336C27.0667 40.1671 27.4997 40.6002 28.0333 40.6002C28.5668 40.6002 28.9999 40.1671 28.9999 39.6336V19.6053L42.5333 22.9887V53.1671C42.5334 53.7006 42.9665 54.1337 43.5 54.1337Z" fill="white"/>
<path d="M21.2666 20.2996C21.2666 19.7661 20.8336 19.333 20.3 19.333C19.7664 19.333 19.3334 19.7661 19.3334 20.2996V22.233C19.3334 22.7666 19.7664 23.1996 20.3 23.1996C20.8336 23.1996 21.2666 22.7666 21.2666 22.233V20.2996Z" fill="white"/>
<path d="M21.2666 14.4998C21.2666 13.9663 20.8336 13.5332 20.3 13.5332C19.7664 13.5332 19.3334 13.9663 19.3334 14.4998V16.4332C19.3334 16.9668 19.7664 17.3998 20.3 17.3998C20.8336 17.3998 21.2666 16.9668 21.2666 16.4332V14.4998Z" fill="white"/>
<path d="M13.5333 43.4998C13.5333 42.9663 13.1003 42.5332 12.5667 42.5332C12.0332 42.5332 11.6 42.9663 11.6 43.4998V45.4332C11.6 45.9668 12.033 46.3998 12.5666 46.3998C13.1002 46.3998 13.5332 45.9668 13.5332 45.4332V43.4998H13.5333Z" fill="white"/>
<path d="M4.83332 34.7997C5.36687 34.7997 5.79995 34.3666 5.79995 33.833V28.9997H15.4666V53.1663C15.4666 53.6998 15.8997 54.1329 16.4332 54.1329C16.9668 54.1329 17.3998 53.6998 17.3998 53.1663V28.033C17.3998 27.4995 16.9668 27.0664 16.4332 27.0664H4.83321C4.29965 27.0664 3.86658 27.4995 3.86658 28.033V33.833C3.86658 34.3666 4.29965 34.7997 4.83332 34.7997Z" fill="white"/>
<path d="M15.4667 20.2996V22.233C15.4667 22.7666 15.8997 23.1996 16.4333 23.1996C16.9669 23.1996 17.3999 22.7666 17.3999 22.233V20.2996C17.3999 19.7661 16.9669 19.333 16.4333 19.333C15.8997 19.333 15.4667 19.7661 15.4667 20.2996Z" fill="white"/>
<path d="M21.2666 8.70003C21.2666 8.16647 20.8336 7.7334 20.3 7.7334C19.7664 7.7334 19.3334 8.16647 19.3334 8.70003V10.6334C19.3334 11.167 19.7664 11.6 20.3 11.6C20.8336 11.6 21.2666 11.167 21.2666 10.6334V8.70003Z" fill="white"/>
<path d="M12.5666 48.333C12.033 48.333 11.6 48.7661 11.6 49.2996V53.1663C11.6 53.6998 12.033 54.1329 12.5666 54.1329C13.1002 54.1329 13.5332 53.6998 13.5332 53.1663V49.2996C13.5333 48.7661 13.1003 48.333 12.5666 48.333Z" fill="white"/>
<path d="M57.0334 56.0668H55.1V50.1295C56.7626 49.6974 58 48.1961 58 46.4C58 44.2675 56.2658 42.5334 54.1334 42.5334C52.001 42.5334 50.2667 44.2676 50.2667 46.4C50.2667 48.1961 51.5041 49.6973 53.1667 50.1295V56.0668H29V52.1025C31.203 51.653 32.8666 49.7013 32.8666 47.3668C32.8666 44.7017 30.6984 42.5334 28.0333 42.5334C25.3682 42.5334 23.1999 44.7016 23.1999 47.3668C23.1999 49.7013 24.8635 51.653 27.0665 52.1025V56.0668H5.8V46.3025C8.00298 45.853 9.66663 43.9013 9.66663 41.5668C9.66663 38.9017 7.49843 36.7334 4.83326 36.7334C2.1682 36.7335 0 38.9017 0 41.5668C0 43.9013 1.66365 45.853 3.86663 46.3025V56.0668H0.966629C0.433074 56.0668 0 56.4998 0 57.0334C0 57.567 0.433074 58.0001 0.966629 58.0001H57.0333C57.5668 58.0001 57.9999 57.5671 57.9999 57.0335C57.9999 56.5 57.5669 56.0668 57.0334 56.0668ZM1.93337 41.5668C1.93337 39.9679 3.23452 38.6668 4.83337 38.6668C6.43222 38.6668 7.73337 39.9679 7.73337 41.5668C7.73337 43.1656 6.43222 44.4668 4.83337 44.4668C3.23452 44.4668 1.93337 43.1656 1.93337 41.5668ZM25.1334 47.3668C25.1334 45.7679 26.4345 44.4668 28.0334 44.4668C29.6322 44.4668 30.9334 45.7679 30.9334 47.3668C30.9334 48.9656 29.6322 50.2668 28.0334 50.2668C26.4345 50.2668 25.1334 48.9656 25.1334 47.3668ZM52.2 46.4001C52.2 45.3339 53.0671 44.4668 54.1334 44.4668C55.1997 44.4668 56.0667 45.3338 56.0667 46.4001C56.0667 47.4663 55.1997 48.3335 54.1334 48.3335C53.0671 48.3335 52.2 47.4663 52.2 46.4001Z" fill="white"/>
<path d="M7.7334 49.2996V53.1663C7.7334 53.6998 8.16647 54.1329 8.70003 54.1329C9.23358 54.1329 9.66666 53.6998 9.66666 53.1663V49.2996C9.66666 48.7661 9.23358 48.333 8.70003 48.333C8.16647 48.333 7.7334 48.7661 7.7334 49.2996Z" fill="white"/>
<path d="M13.5334 31.9002C13.5334 31.3667 13.1003 30.9336 12.5667 30.9336C12.0332 30.9336 11.6001 31.3667 11.6001 31.9002V33.8336C11.6001 34.3671 12.0332 34.8002 12.5667 34.8002C13.1003 34.8002 13.5334 34.3671 13.5334 33.8336V31.9002Z" fill="white"/>
<path d="M13.5334 37.7C13.5334 37.1665 13.1003 36.7334 12.5667 36.7334C12.0332 36.7334 11.6001 37.1665 11.6001 37.7V39.6334C11.6001 40.167 12.0332 40.6 12.5667 40.6C13.1003 40.6 13.5334 40.167 13.5334 39.6334V37.7Z" fill="white"/>
<path d="M7.7334 31.9002V33.8336C7.7334 34.3671 8.16647 34.8002 8.70003 34.8002C9.23358 34.8002 9.66666 34.3671 9.66666 33.8336V31.9002C9.66666 31.3667 9.23358 30.9336 8.70003 30.9336C8.16647 30.9336 7.7334 31.3667 7.7334 31.9002Z" fill="white"/>
<path d="M21.2666 37.7C21.2666 37.1665 20.8336 36.7334 20.3 36.7334C19.7664 36.7334 19.3334 37.1665 19.3334 37.7V39.6334C19.3334 40.167 19.7664 40.6 20.3 40.6C20.8336 40.6 21.2666 40.167 21.2666 39.6334V37.7Z" fill="white"/>
<path d="M25.1333 26.1004C25.1333 25.5669 24.7003 25.1338 24.1667 25.1338C23.6331 25.1338 23.2001 25.5669 23.2001 26.1004V28.0338C23.2001 28.5673 23.6331 29.0004 24.1667 29.0004C24.7003 29.0004 25.1333 28.5673 25.1333 28.0338V26.1004Z" fill="white"/>
<path d="M25.1333 20.2996C25.1333 19.7661 24.7003 19.333 24.1667 19.333C23.6331 19.333 23.2001 19.7661 23.2001 20.2996V22.233C23.2001 22.7666 23.6331 23.1996 24.1667 23.1996C24.7003 23.1996 25.1333 22.7666 25.1333 22.233V20.2996Z" fill="white"/>
<path d="M25.1333 31.9002C25.1333 31.3667 24.7003 30.9336 24.1667 30.9336C23.6331 30.9336 23.2001 31.3667 23.2001 31.9002V33.8336C23.2001 34.3671 23.6331 34.8002 24.1667 34.8002C24.7003 34.8002 25.1333 34.3671 25.1333 33.8336V31.9002Z" fill="white"/>
<path d="M24.1666 36.7334C23.6331 36.7334 23.2 37.1665 23.2 37.7V39.6334C23.2 40.167 23.6331 40.6 24.1666 40.6C24.7002 40.6 25.1333 40.167 25.1333 39.6334V37.7C25.1334 37.1665 24.7003 36.7334 24.1666 36.7334Z" fill="white"/>
<path d="M25.1333 14.4998C25.1333 13.9663 24.7003 13.5332 24.1667 13.5332C23.6331 13.5332 23.2001 13.9663 23.2001 14.4998V16.4332C23.2001 16.9668 23.6331 17.3998 24.1667 17.3998C24.7003 17.3998 25.1333 16.9668 25.1333 16.4332V14.4998Z" fill="white"/>
<path d="M21.2666 43.4998C21.2666 42.9663 20.8336 42.5332 20.3 42.5332C19.7664 42.5332 19.3334 42.9663 19.3334 43.4998V45.4332C19.3334 45.9668 19.7664 46.3998 20.3 46.3998C20.8336 46.3998 21.2666 45.9668 21.2666 45.4332V43.4998Z" fill="white"/>
<path d="M12.5666 25.1334C13.1002 25.1334 13.5332 24.7003 13.5332 24.1667V17.0307L16.8653 15.3651C17.193 15.2008 17.3999 14.8664 17.3999 14.5V6.39745L22.2332 3.98082L27.0666 6.39745V14.5C27.0666 15.0336 27.4997 15.4666 28.0332 15.4666C28.5668 15.4666 29 15.0336 29 14.5V5.8C29 5.43365 28.7931 5.09913 28.4654 4.93487L23.2 2.30255V0.966629C23.2 0.433074 22.7669 0 22.2334 0C21.6998 0 21.2667 0.433074 21.2667 0.966629V2.30255L16.0013 4.93476C15.6736 5.09913 15.4667 5.43354 15.4667 5.79989V13.9024L12.1347 15.568C11.8069 15.7324 11.6001 16.0668 11.6001 16.4331V24.1665C11.6 24.7003 12.0331 25.1334 12.5666 25.1334Z" fill="white"/>
<path d="M21.2666 31.9002C21.2666 31.3667 20.8336 30.9336 20.3 30.9336C19.7664 30.9336 19.3334 31.3667 19.3334 31.9002V33.8336C19.3334 34.3671 19.7664 34.8002 20.3 34.8002C20.8336 34.8002 21.2666 34.3671 21.2666 33.8336V31.9002Z" fill="white"/>
<path d="M20.3 48.333C19.7664 48.333 19.3334 48.7661 19.3334 49.2996V53.1663C19.3334 53.6998 19.7664 54.1329 20.3 54.1329C20.8336 54.1329 21.2666 53.6998 21.2666 53.1663V49.2996C21.2666 48.7661 20.8336 48.333 20.3 48.333Z" fill="white"/>
<path d="M25.1333 8.70003C25.1333 8.16647 24.7003 7.7334 24.1667 7.7334C23.6331 7.7334 23.2001 8.16647 23.2001 8.70003V10.6334C23.2001 11.167 23.6331 11.6 24.1667 11.6C24.7003 11.6 25.1333 11.167 25.1333 10.6334V8.70003Z" fill="white"/>
<path d="M21.2666 26.1004C21.2666 25.5669 20.8336 25.1338 20.3 25.1338C19.7664 25.1338 19.3334 25.5669 19.3334 26.1004V28.0338C19.3334 28.5673 19.7664 29.0004 20.3 29.0004C20.8336 29.0004 21.2666 28.5673 21.2666 28.0338V26.1004Z" fill="white"/>
</svg>
