<svg xmlns="http://www.w3.org/2000/svg" width="58" height="58" viewBox="0 0 58 58"><g><g><path fill="#1b345c" fill-opacity=".8" d="M36.733 37.697a.967.967 0 0 0-1.933 0v1.933a.967.967 0 0 0 1.933 0z"/></g><g><path fill="#1b345c" fill-opacity=".8" d="M35.767 48.33a.967.967 0 0 0-.967.967v3.866a.967.967 0 0 0 1.933 0v-3.866a.967.967 0 0 0-.966-.967z"/></g><g><path fill="#1b345c" fill-opacity=".8" d="M40.603 26.097a.967.967 0 0 0-1.933 0v1.933a.967.967 0 0 0 1.933 0z"/></g><g><path fill="#1b345c" fill-opacity=".8" d="M36.733 31.897a.967.967 0 0 0-1.933 0v1.933a.967.967 0 0 0 1.933 0z"/></g><g><path fill="#1b345c" fill-opacity=".8" d="M36.733 43.497a.967.967 0 0 0-1.933 0v1.933a.967.967 0 0 0 1.933 0v-1.933z"/></g><g><path fill="#1b345c" fill-opacity=".8" d="M40.603 31.897a.967.967 0 0 0-1.933 0v1.933a.967.967 0 0 0 1.933 0z"/></g><g><path fill="#1b345c" fill-opacity=".8" d="M32.863 26.097a.967.967 0 0 0-1.933 0v1.933a.967.967 0 0 0 1.933 0z"/></g><g><path fill="#1b345c" fill-opacity=".8" d="M36.733 26.097a.967.967 0 0 0-1.933 0v1.933a.967.967 0 0 0 1.933 0z"/></g><g><path fill="#1b345c" fill-opacity=".8" d="M40.603 16.43v-1.933a.967.967 0 0 0-1.933 0v1.933a.967.967 0 0 0 1.933 0z"/></g><g><path fill="#1b345c" fill-opacity=".8" d="M32.863 31.897a.967.967 0 0 0-1.933 0v1.933a.967.967 0 0 0 1.933 0z"/></g><g><path fill="#1b345c" fill-opacity=".8" d="M44.463 14.497a.967.967 0 0 0-1.933 0v1.933a.967.967 0 0 0 1.933 0z"/></g><g><path fill="#1b345c" fill-opacity=".8" d="M31.897 36.73a.967.967 0 0 0-.967.967v1.933a.967.967 0 0 0 1.933 0v-1.933a.967.967 0 0 0-.966-.967z"/></g><g><path fill="#1b345c" fill-opacity=".8" d="M48.333 43.497a.967.967 0 0 0-1.933 0v1.933a.967.967 0 0 0 1.933 0v-1.933z"/></g><g><path fill="#1b345c" fill-opacity=".8" d="M47.367 48.33a.967.967 0 0 0-.967.967v3.866a.967.967 0 0 0 1.933 0v-3.866a.967.967 0 0 0-.966-.967z"/></g><g><path fill="#1b345c" fill-opacity=".8" d="M51.237 36.73a.967.967 0 0 0-.967.967v1.933a.967.967 0 0 0 1.933 0v-1.933a.967.967 0 0 0-.966-.967z"/></g><g><path fill="#1b345c" fill-opacity=".8" d="M35.767 17.4a.967.967 0 0 0 .966-.967v-4.078L46.4 9.938V26.1c0 .403.25.764.627.906l7.106 2.664v9.963a.967.967 0 0 0 1.934 0V29a.969.969 0 0 0-.628-.906l-7.106-2.664V6.767a.967.967 0 0 0-1.933 0v1.178l-10.868 2.717a.966.966 0 0 0-.732.938v4.833c0 .534.433.967.967.967z"/></g><g><path fill="#1b345c" fill-opacity=".8" d="M52.203 31.897a.967.967 0 0 0-1.933 0v1.933a.967.967 0 0 0 1.933 0z"/></g><g><path fill="#1b345c" fill-opacity=".8" d="M48.333 31.897a.967.967 0 0 0-1.933 0v1.933a.967.967 0 0 0 1.933 0z"/></g><g><path fill="#1b345c" fill-opacity=".8" d="M40.603 43.497a.967.967 0 0 0-1.933 0v1.933a.967.967 0 0 0 1.933 0z"/></g><g><path fill="#1b345c" fill-opacity=".8" d="M48.333 37.697a.967.967 0 0 0-1.933 0v1.933a.967.967 0 0 0 1.933 0z"/></g><g><path fill="#1b345c" fill-opacity=".8" d="M39.637 48.33a.967.967 0 0 0-.967.967v3.866a.967.967 0 0 0 1.933 0v-3.866a.967.967 0 0 0-.966-.967z"/></g><g><path fill="#1b345c" fill-opacity=".8" d="M40.603 37.697a.967.967 0 0 0-1.933 0v1.933a.967.967 0 0 0 1.933 0z"/></g><g><path fill="#1b345c" fill-opacity=".8" d="M43.503 54.133a.967.967 0 0 0 .967-.966V22.233a.967.967 0 0 0-.732-.937l-15.466-3.867a.968.968 0 0 0-1.202.938v21.266a.967.967 0 0 0 1.933 0V19.605l13.534 3.383v30.179c0 .533.433.966.966.966z"/></g><g><path fill="#1b345c" fill-opacity=".8" d="M21.263 20.297a.967.967 0 0 0-1.933 0v1.933a.967.967 0 0 0 1.933 0z"/></g><g><path fill="#1b345c" fill-opacity=".8" d="M21.263 14.497a.967.967 0 0 0-1.933 0v1.933a.967.967 0 0 0 1.933 0z"/></g><g><path fill="#1b345c" fill-opacity=".8" d="M13.533 43.497a.967.967 0 0 0-1.933 0v1.933a.967.967 0 0 0 1.933 0v-1.933z"/></g><g><path fill="#1b345c" fill-opacity=".8" d="M4.837 34.803a.967.967 0 0 0 .966-.966v-4.834h9.667V53.17a.967.967 0 0 0 1.933 0V28.037a.967.967 0 0 0-.966-.967h-11.6a.967.967 0 0 0-.967.967v5.8c0 .533.433.966.967.966z"/></g><g><path fill="#1b345c" fill-opacity=".8" d="M15.47 20.297v1.933a.967.967 0 0 0 1.933 0v-1.933a.967.967 0 0 0-1.933 0z"/></g><g><path fill="#1b345c" fill-opacity=".8" d="M21.263 8.697a.967.967 0 0 0-1.933 0v1.933a.967.967 0 0 0 1.933 0z"/></g><g><path fill="#1b345c" fill-opacity=".8" d="M12.567 48.33a.967.967 0 0 0-.967.967v3.866a.967.967 0 0 0 1.933 0v-3.866a.967.967 0 0 0-.966-.967z"/></g><g><path fill="#1b345c" fill-opacity=".8" d="M57.033 56.063a.967.967 0 0 1 0 1.934H.967a.967.967 0 0 1 0-1.934h2.9V46.3A4.842 4.842 0 0 1 0 41.563a4.839 4.839 0 0 1 4.833-4.833 4.839 4.839 0 0 1 4.834 4.833A4.842 4.842 0 0 1 5.8 46.3v9.764h21.267V52.1a4.842 4.842 0 0 1-3.867-4.736 4.839 4.839 0 0 1 4.833-4.833 4.839 4.839 0 0 1 4.834 4.833A4.842 4.842 0 0 1 29 52.1v3.964h24.167v-5.937c-1.663-.432-2.9-1.933-2.9-3.73a3.87 3.87 0 0 1 3.866-3.866A3.87 3.87 0 0 1 58 46.397c0 1.796-1.237 3.297-2.9 3.73v5.936zm-52.2-11.6c1.6 0 2.9-1.3 2.9-2.9 0-1.598-1.3-2.9-2.9-2.9a2.904 2.904 0 0 0-2.9 2.9c0 1.6 1.302 2.9 2.9 2.9zm23.2 5.8c1.6 0 2.9-1.3 2.9-2.9 0-1.598-1.3-2.9-2.9-2.9a2.904 2.904 0 0 0-2.9 2.9c0 1.6 1.302 2.9 2.9 2.9zm26.1-1.933a1.935 1.935 0 0 0 1.934-1.933 1.935 1.935 0 0 0-1.934-1.934 1.935 1.935 0 0 0-1.933 1.934c0 1.066.867 1.933 1.933 1.933z"/></g><g><path fill="#1b345c" fill-opacity=".8" d="M7.73 49.297v3.866a.967.967 0 0 0 1.933 0v-3.866a.967.967 0 0 0-1.933 0z"/></g><g><path fill="#1b345c" fill-opacity=".8" d="M13.533 31.897a.967.967 0 0 0-1.933 0v1.933a.967.967 0 0 0 1.933 0z"/></g><g><path fill="#1b345c" fill-opacity=".8" d="M13.533 37.697a.967.967 0 0 0-1.933 0v1.933a.967.967 0 0 0 1.933 0z"/></g><g><path fill="#1b345c" fill-opacity=".8" d="M7.73 31.897v1.933a.967.967 0 0 0 1.933 0v-1.933a.967.967 0 0 0-1.933 0z"/></g><g><path fill="#1b345c" fill-opacity=".8" d="M21.263 37.697a.967.967 0 0 0-1.933 0v1.933a.967.967 0 0 0 1.933 0z"/></g><g><path fill="#1b345c" fill-opacity=".8" d="M25.133 26.097a.967.967 0 0 0-1.933 0v1.933a.967.967 0 0 0 1.933 0z"/></g><g><path fill="#1b345c" fill-opacity=".8" d="M25.133 20.297a.967.967 0 0 0-1.933 0v1.933a.967.967 0 0 0 1.933 0z"/></g><g><path fill="#1b345c" fill-opacity=".8" d="M25.133 31.897a.967.967 0 0 0-1.933 0v1.933a.967.967 0 0 0 1.933 0z"/></g><g><path fill="#1b345c" fill-opacity=".8" d="M24.167 36.73a.967.967 0 0 0-.967.967v1.933a.967.967 0 0 0 1.933 0v-1.933a.967.967 0 0 0-.966-.967z"/></g><g><path fill="#1b345c" fill-opacity=".8" d="M25.133 14.497a.967.967 0 0 0-1.933 0v1.933a.967.967 0 0 0 1.933 0z"/></g><g><path fill="#1b345c" fill-opacity=".8" d="M21.263 43.497a.967.967 0 0 0-1.933 0v1.933a.967.967 0 0 0 1.933 0z"/></g><g><path fill="#1b345c" fill-opacity=".8" d="M12.567 25.133a.967.967 0 0 0 .966-.966V17.03l3.332-1.666a.968.968 0 0 0 .535-.865V6.397l4.833-2.416 4.833 2.416V14.5a.967.967 0 0 0 1.934 0V5.8c0-.366-.207-.7-.535-.865L23.2 2.303V.967a.967.967 0 0 0-1.933 0v1.336L16 4.935a.968.968 0 0 0-.534.865v8.102l-3.332 1.666a.968.968 0 0 0-.535.865v7.734c0 .533.433.966.967.966z"/></g><g><path fill="#1b345c" fill-opacity=".8" d="M21.263 31.897a.967.967 0 0 0-1.933 0v1.933a.967.967 0 0 0 1.933 0z"/></g><g><path fill="#1b345c" fill-opacity=".8" d="M20.297 48.33a.967.967 0 0 0-.967.967v3.866a.967.967 0 0 0 1.933 0v-3.866a.967.967 0 0 0-.966-.967z"/></g><g><path fill="#1b345c" fill-opacity=".8" d="M25.133 8.697a.967.967 0 0 0-1.933 0v1.933a.967.967 0 0 0 1.933 0z"/></g><g><path fill="#1b345c" fill-opacity=".8" d="M21.263 26.097a.967.967 0 0 0-1.933 0v1.933a.967.967 0 0 0 1.933 0z"/></g></g></svg>