<svg width="58" height="58" viewBox="0 0 58 58" fill="none" xmlns="http://www.w3.org/2000/svg">
<path d="M57.8979 16.001L55.9646 12.1343C55.8843 11.9738 55.7609 11.8388 55.6082 11.7444C55.4555 11.65 55.2795 11.6001 55.1 11.6001C54.9205 11.6001 54.7445 11.65 54.5918 11.7444C54.4391 11.8388 54.3157 11.9738 54.2354 12.1343L52.3021 16.001C52.2349 16.1352 52.2 16.2832 52.2 16.4333V23.1004C51.5576 23.1661 50.9124 23.1993 50.2667 23.2C41.7384 23.2 34.8 17.5626 34.8 10.6333C34.8 10.377 34.6982 10.1311 34.5169 9.9498C34.3356 9.76851 34.0897 9.66667 33.8333 9.66667H29.9667V3.86667H31.9C32.1564 3.86667 32.4023 3.76482 32.5835 3.58354C32.7648 3.40225 32.8667 3.15638 32.8667 2.9C32.8667 2.64362 32.7648 2.39775 32.5835 2.21646C32.4023 2.03518 32.1564 1.93333 31.9 1.93333H29.9667V0.966667C29.9667 0.710291 29.8648 0.464415 29.6835 0.28313C29.5023 0.101845 29.2564 0 29 0C28.7436 0 28.4977 0.101845 28.3165 0.28313C28.1352 0.464415 28.0333 0.710291 28.0333 0.966667V1.93333H26.1C25.8436 1.93333 25.5977 2.03518 25.4165 2.21646C25.2352 2.39775 25.1333 2.64362 25.1333 2.9C25.1333 3.15638 25.2352 3.40225 25.4165 3.58354C25.5977 3.76482 25.8436 3.86667 26.1 3.86667H28.0333V9.66667H24.1667C23.9103 9.66667 23.6644 9.76851 23.4831 9.9498C23.3018 10.1311 23.2 10.377 23.2 10.6333C23.2 17.5626 16.2616 23.2 7.73333 23.2C7.08763 23.1993 6.44236 23.1661 5.8 23.1004V16.4333C5.80002 16.2832 5.76506 16.1352 5.6979 16.001L3.76456 12.1343C3.68427 11.9738 3.56086 11.8388 3.40816 11.7444C3.25546 11.65 3.0795 11.6001 2.9 11.6001C2.7205 11.6001 2.54454 11.65 2.39184 11.7444C2.23914 11.8388 2.11573 11.9738 2.03544 12.1343L0.102104 16.001C0.0349427 16.1352 -1.639e-05 16.2832 5.76452e-09 16.4333V57.0333C5.76452e-09 57.2897 0.101845 57.5356 0.28313 57.7169C0.464415 57.8982 0.710291 58 0.966667 58H57.0333C57.2897 58 57.5356 57.8982 57.7169 57.7169C57.8982 57.5356 58 57.2897 58 57.0333V16.4333C58 16.2832 57.9651 16.1352 57.8979 16.001ZM55.1 14.7283L56.0667 16.6616V52.2H54.1333V16.6616L55.1 14.7283ZM50.2667 25.1333C50.9124 25.1333 51.5596 25.1034 52.2 25.0445V32.2971L34.8 23.9451V17.2713C37.695 21.9368 43.5411 25.1333 50.2667 25.1333ZM28.0333 56.0667H25.1333V44.4667C25.1344 43.6097 25.4197 42.7772 25.9444 42.0997C26.4692 41.4222 27.2038 40.9378 28.0333 40.7224V56.0667ZM29.9667 40.7224C30.7962 40.9378 31.5308 41.4222 32.0556 42.0997C32.5803 42.7772 32.8656 43.6097 32.8667 44.4667V56.0667H29.9667V40.7224ZM29 38.6667C27.4623 38.6684 25.988 39.28 24.9007 40.3674C23.8134 41.4547 23.2017 42.9289 23.2 44.4667V56.0667H21.2667V34.8H36.7333V56.0667H34.8V44.4667C34.7983 42.9289 34.1866 41.4547 33.0993 40.3674C32.012 39.28 30.5377 38.6684 29 38.6667ZM19.3333 34.8V56.0667H17.4V34.8H19.3333ZM30.9333 32.8667H27.0667V29H30.9333V32.8667ZM38.6667 34.8H40.6V56.0667H38.6667V34.8ZM32.8667 32.8667V28.0333C32.8667 27.777 32.7648 27.5311 32.5835 27.3498C32.4023 27.1685 32.1564 27.0667 31.9 27.0667H26.1C25.8436 27.0667 25.5977 27.1685 25.4165 27.3498C25.2352 27.5311 25.1333 27.777 25.1333 28.0333V32.8667H9.08111L29 23.3056L48.9189 32.8667H32.8667ZM32.8667 23.0171L29.4183 21.3616C29.2878 21.299 29.1448 21.2664 29 21.2664C28.8552 21.2664 28.7122 21.299 28.5817 21.3616L25.1333 23.0171V11.6H32.8667V23.0171ZM7.73333 25.1333C14.4589 25.1333 20.305 21.9368 23.2 17.2713V23.9451L5.8 32.2971V25.0445C6.44042 25.1034 7.0876 25.1333 7.73333 25.1333ZM2.9 14.7283L3.86667 16.6616V52.2H1.93333V16.6616L2.9 14.7283ZM1.93333 56.0667V54.1333H3.86667V56.0667H1.93333ZM5.8 34.8H15.4667V56.0667H5.8V34.8ZM42.5333 56.0667V34.8H52.2V56.0667H42.5333ZM54.1333 56.0667V54.1333H56.0667V56.0667H54.1333Z" fill="#1B345C" fill-opacity="0.8"/>
</svg>
