<svg xmlns="http://www.w3.org/2000/svg" width="1054" height="18" viewBox="0 0 1054 18"><defs><clipPath id="r1kta"><path fill="#fff" d="M536 379a9 9 0 1 1-18 0 9 9 0 0 1 18 0z"/></clipPath><clipPath id="r1ktb"><path fill="#fff" d="M536 527a9 9 0 1 1-18 0 9 9 0 0 1 18 0z"/></clipPath><clipPath id="r1ktc"><path fill="#fff" d="M536 231a9 9 0 1 1-18 0 9 9 0 0 1 18 0z"/></clipPath><clipPath id="r1ktd"><path fill="#fff" d="M536 83a9 9 0 1 1-18 0 9 9 0 0 1 18 0z"/></clipPath><clipPath id="r1kte"><path fill="#fff" d="M536-65a9 9 0 1 1-18 0 9 9 0 0 1 18 0z"/></clipPath><clipPath id="r1ktf"><path fill="#fff" d="M536-213a9 9 0 1 1-18 0 9 9 0 0 1 18 0z"/></clipPath><clipPath id="r1ktg"><path fill="#fff" d="M536-361a9 9 0 1 1-18 0 9 9 0 0 1 18 0z"/></clipPath><clipPath id="r1kth"><path fill="#fff" d="M536-509a9 9 0 1 1-18 0 9 9 0 0 1 18 0z"/></clipPath></defs><g><g transform="rotate(90 527 9)"><g><path fill="#fff" d="M536 379a9 9 0 1 1-18 0 9 9 0 0 1 18 0z"/><path fill="none" stroke="#1b345c" stroke-miterlimit="50" stroke-opacity=".8" stroke-width="4" d="M536 379a9 9 0 1 1-18 0 9 9 0 0 1 18 0z" clip-path="url(&quot;#r1kta&quot;)"/></g><g><path fill="#fff" d="M536 527a9 9 0 1 1-18 0 9 9 0 0 1 18 0z"/><path fill="none" stroke="#1b345c" stroke-miterlimit="50" stroke-opacity=".8" stroke-width="4" d="M536 527a9 9 0 1 1-18 0 9 9 0 0 1 18 0z" clip-path="url(&quot;#r1ktb&quot;)"/></g><g><path fill="#1b345c" fill-opacity=".8" d="M526 388h2v130h-2z"/></g><g><path fill="#fff" d="M536 231a9 9 0 1 1-18 0 9 9 0 0 1 18 0z"/><path fill="none" stroke="#1b345c" stroke-miterlimit="50" stroke-opacity=".8" stroke-width="4" d="M536 231a9 9 0 1 1-18 0 9 9 0 0 1 18 0z" clip-path="url(&quot;#r1ktc&quot;)"/></g><g><path fill="#1b345c" fill-opacity=".8" d="M526 240h2v130h-2z"/></g><g><path fill="#fff" d="M536 83a9 9 0 1 1-18 0 9 9 0 0 1 18 0z"/><path fill="none" stroke="#1b345c" stroke-miterlimit="50" stroke-opacity=".8" stroke-width="4" d="M536 83a9 9 0 1 1-18 0 9 9 0 0 1 18 0z" clip-path="url(&quot;#r1ktd&quot;)"/></g><g><path fill="#1b345c" fill-opacity=".8" d="M526 92h2v130h-2z"/></g><g><path fill="#fff" d="M536-65a9 9 0 1 1-18 0 9 9 0 0 1 18 0z"/><path fill="none" stroke="#1b345c" stroke-miterlimit="50" stroke-opacity=".8" stroke-width="4" d="M536-65a9 9 0 1 1-18 0 9 9 0 0 1 18 0z" clip-path="url(&quot;#r1kte&quot;)"/></g><g><path fill="#1b345c" fill-opacity=".8" d="M526-56h2V74h-2z"/></g><g><path fill="#fff" d="M536-213a9 9 0 1 1-18 0 9 9 0 0 1 18 0z"/><path fill="none" stroke="#1b345c" stroke-miterlimit="50" stroke-opacity=".8" stroke-width="4" d="M536-213a9 9 0 1 1-18 0 9 9 0 0 1 18 0z" clip-path="url(&quot;#r1ktf&quot;)"/></g><g><path fill="#1b345c" fill-opacity=".8" d="M526-204h2v130h-2z"/></g><g><path fill="#fff" d="M536-361a9 9 0 1 1-18 0 9 9 0 0 1 18 0z"/><path fill="none" stroke="#1b345c" stroke-miterlimit="50" stroke-opacity=".8" stroke-width="4" d="M536-361a9 9 0 1 1-18 0 9 9 0 0 1 18 0z" clip-path="url(&quot;#r1ktg&quot;)"/></g><g><path fill="#1b345c" fill-opacity=".8" d="M526-352h2v130h-2z"/></g><g><path fill="#fff" d="M536-509a9 9 0 1 1-18 0 9 9 0 0 1 18 0z"/><path fill="none" stroke="#1b345c" stroke-miterlimit="50" stroke-opacity=".8" stroke-width="4" d="M536-509a9 9 0 1 1-18 0 9 9 0 0 1 18 0z" clip-path="url(&quot;#r1kth&quot;)"/></g><g><path fill="#1b345c" fill-opacity=".8" d="M526-500h2v130h-2z"/></g></g><g><path fill="#495d7d" d="M12 9a3 3 0 1 1-6 0 3 3 0 0 1 6 0z"/></g><g><path fill="#495d7d" d="M160 9a3 3 0 1 1-6 0 3 3 0 0 1 6 0z"/></g><g><path fill="#495d7d" d="M308 9a3 3 0 1 1-6 0 3 3 0 0 1 6 0z"/></g><g><path fill="#495d7d" d="M456 9a3 3 0 1 1-6 0 3 3 0 0 1 6 0z"/></g><g><path fill="#495d7d" d="M604 9a3 3 0 1 1-6 0 3 3 0 0 1 6 0z"/></g><g><path fill="#495d7d" d="M752 9a3 3 0 1 1-6 0 3 3 0 0 1 6 0z"/></g><g><path fill="#495d7d" d="M900 9a3 3 0 1 1-6 0 3 3 0 0 1 6 0z"/></g><g><path fill="#495d7d" d="M1048 9a3 3 0 1 1-6 0 3 3 0 0 1 6 0z"/></g></g></svg>