<svg width="50" height="58" viewBox="0 0 50 58" fill="#000" xmlns="http://www.w3.org/2000/svg">
<path d="M47.4988 6.68353H44.7805V2.77597C44.7805 1.24531 43.5352 0 42.0046 0H6.16604C4.63538 0 3.39007 1.24531 3.39007 2.77597V6.68342H0.838628C0.37537 6.68342 0 7.05879 0 7.52204C0 7.9853 0.37537 8.36067 0.838628 8.36067H3.39007V12.2681C3.39007 13.7988 4.63538 15.0441 6.16593 15.0441H7.3816V17.717C7.3816 19.5536 8.87581 21.0478 10.7124 21.0478C11.314 21.0478 11.8783 20.8866 12.366 20.6065V24.6365C12.366 26.4731 13.8602 27.9673 15.6969 27.9673C17.5336 27.9673 19.0278 26.4731 19.0278 24.6365V15.0441H22.2053C22.6686 15.0441 23.0439 14.6687 23.0439 14.2055C23.0439 13.7422 22.6686 13.3668 22.2053 13.3668H21.0425C21.3453 12.8571 21.5199 12.2625 21.5199 11.6277V7.41056C22.0296 7.71325 22.6245 7.88724 23.2591 7.88724C25.1428 7.88724 26.6754 6.35467 26.6754 4.47078V1.67737H42.0047C42.6105 1.67737 43.1032 2.17015 43.1032 2.77597V12.2683C43.1032 12.8741 42.6106 13.3669 42.0047 13.3669H26.1191C25.6559 13.3669 25.2805 13.7423 25.2805 14.2056C25.2805 14.6688 25.6559 15.0442 26.1191 15.0442H42.0047C43.5354 15.0442 44.7805 13.7989 44.7805 12.2682V8.3609H47.4988C47.9531 8.3609 48.3229 8.73056 48.3229 9.18488V17.7423C48.3229 18.4854 47.8256 19.1524 47.1134 19.3646L24.6233 26.0634C23.8128 26.3048 23.2465 27.0642 23.2465 27.91V29.3813H19.4905C18.3104 29.3813 17.3503 30.3413 17.3503 31.5214V32.6764C17.3503 33.7581 18.1577 34.6527 19.2012 34.7947L17.6537 50.3245C17.2852 54.0221 20.1928 57.2505 23.9237 57.2505C27.6397 57.2505 30.5637 54.0369 30.1936 50.3246L29.6503 44.8704C29.6045 44.4096 29.1943 44.0728 28.7327 44.119C28.2718 44.1648 27.9354 44.5757 27.9813 45.0365L28.5246 50.4909C28.795 53.2039 26.6613 55.5731 23.9237 55.5731C21.197 55.5731 19.0511 53.2151 19.3227 50.4909L20.8846 34.8166H26.9627L27.5911 41.1228C27.637 41.5836 28.0461 41.9212 28.5089 41.8741C28.9697 41.8283 29.3061 41.4174 29.2602 40.9563L28.6484 34.8166H28.8336C30.0137 34.8166 30.9738 33.8564 30.9738 32.6764V31.5214C30.9738 30.3413 30.0136 29.3813 28.8336 29.3813H24.9238V27.91C24.9238 27.8005 24.997 27.7024 25.1019 27.671L47.5921 20.9721C49.01 20.5498 50 19.2217 50 17.7423V9.18488C50.0003 7.80561 48.8781 6.68353 47.4988 6.68353ZM12.366 17.7173C12.366 18.6291 11.6242 19.3707 10.7124 19.3707C9.80065 19.3707 9.05897 18.6291 9.05897 17.7173V15.0444H12.366V17.7173ZM17.3504 24.6366C17.3504 25.5484 16.6086 26.2901 15.6969 26.2901C14.7852 26.2901 14.0433 25.5484 14.0433 24.6366C14.0433 23.4677 14.0433 16.1356 14.0433 15.0442H17.3504V24.6366ZM23.2591 6.20976C22.3 6.20976 21.5199 5.42961 21.5199 4.47067C21.5199 4.00741 21.1445 3.63204 20.6812 3.63204C20.218 3.63204 19.8426 4.00741 19.8426 4.47067V11.6277C19.8426 12.5867 19.0626 13.3668 18.1036 13.3668C11.9679 13.3668 12.2729 13.3668 6.16604 13.3668C5.56033 13.3668 5.06755 12.8741 5.06755 12.2682V2.77597C5.06755 2.17026 5.56021 1.67737 6.16604 1.67737H24.998V4.47078H24.9982C24.998 5.42961 24.218 6.20976 23.2591 6.20976ZM28.8337 31.0585C29.0846 31.0585 29.2965 31.2705 29.2965 31.5213V32.6763C29.2965 32.9271 29.0845 33.1391 28.8337 33.1391C25.4383 33.1391 22.9255 33.1391 19.4905 33.1391C19.2397 33.1391 19.0277 32.9271 19.0277 32.6763V31.5213C19.0277 31.2705 19.2397 31.0585 19.4905 31.0585H28.8337Z" fill="white"/>
</svg>
