<svg width="58" height="58" viewBox="0 0 58 58" fill="none" xmlns="http://www.w3.org/2000/svg">
<path d="M57.4745 27.2856C57.1564 27.1537 56.7903 27.2266 56.5467 27.47L53.9971 30.0196V12.6841C53.9971 12.2139 53.6159 11.8328 53.1458 11.8328H46.6048L48.9792 9.45842C48.9795 9.45808 48.9799 9.45762 48.9802 9.45728L51.268 7.16945C51.7582 6.67929 52.0282 6.02724 52.0282 5.33396C52.0282 4.64068 51.7582 3.98886 51.268 3.49846L48.6225 0.852891C48.1323 0.362723 47.4802 0.0927734 46.787 0.0927734C46.0937 0.0927734 45.4418 0.362723 44.9515 0.852891L42.6625 3.14185L39.8966 5.90773L33.9717 11.8327H7.5468V3.41078C7.5468 2.94055 7.16561 2.55947 6.69549 2.55947C3.00365 2.5597 0 5.56313 0 9.25519V45.413C0 45.4758 0.00725 45.537 0.0201641 45.5959C0.13775 47.1625 0.815512 48.618 1.94821 49.723C3.15896 50.9038 4.75725 51.5542 6.44876 51.5542H32.4624L27.5631 56.4535C27.3197 56.697 27.2469 57.063 27.3786 57.3813C27.5104 57.6994 27.8209 57.9068 28.1651 57.9068H57.1487C57.6188 57.9068 58 57.5257 58 57.0555V28.0721C58 27.7278 57.7925 27.4173 57.4745 27.2856ZM46.1557 2.05696C46.5037 1.70873 47.0706 1.70873 47.4186 2.05696L50.0643 4.70264C50.4125 5.05075 50.4125 5.6175 50.0643 5.96573L48.3774 7.65271L44.4686 3.74394L46.1557 2.05696ZM43.2646 4.9479L47.1734 8.85655L45.6113 10.4186L41.7028 6.50993L43.2646 4.9479ZM56.2976 37.6378H54.727C54.2567 37.6378 53.8757 38.0189 53.8757 38.4891C53.8757 38.9593 54.2567 39.3404 54.727 39.3404H56.2976V41.9058H54.727C54.2567 41.9058 53.8757 42.2869 53.8757 42.7571C53.8757 43.2273 54.2567 43.6084 54.727 43.6084H56.2976V46.1737H54.727C54.2567 46.1737 53.8757 46.5547 53.8757 47.025C53.8757 47.4952 54.2567 47.8763 54.727 47.8763H56.2976V50.4416H54.727C54.2567 50.4416 53.8757 50.8228 53.8757 51.293C53.8757 51.7632 54.2567 52.1443 54.727 52.1443H56.2976V56.2045H30.2203L38.8192 47.6056C39.1517 47.2731 39.1517 46.7342 38.8192 46.4017C38.781 46.3635 38.74 46.3304 38.6971 46.301C38.3656 46.074 37.9096 46.1074 37.6152 46.4017L34.1651 49.8518H6.44887C3.86697 49.8518 1.78848 47.8361 1.7067 45.2588C1.71157 45.097 1.72414 44.9366 1.7443 44.778C1.74442 44.7771 1.74453 44.7762 1.74464 44.7753C1.75416 44.7 1.7656 44.625 1.77863 44.5505C1.7801 44.542 1.78169 44.5335 1.78316 44.525C1.79505 44.4585 1.80842 44.3923 1.82304 44.3264C1.82711 44.308 1.83142 44.2897 1.83572 44.2714C1.84864 44.2157 1.86257 44.1603 1.87752 44.1051C1.88568 44.0752 1.89418 44.0457 1.9029 44.0159C1.91536 43.9726 1.92827 43.9294 1.94198 43.8867C1.95569 43.844 1.9703 43.8018 1.98514 43.7595C1.99545 43.73 2.00564 43.7004 2.01675 43.6711C2.03748 43.6153 2.05945 43.5602 2.08211 43.5054C2.08857 43.4897 2.09491 43.4737 2.10159 43.458C2.13071 43.39 2.16095 43.3228 2.1929 43.2564C2.19426 43.2536 2.1955 43.2508 2.19686 43.2479C2.86273 41.87 4.14337 40.8426 5.68026 40.5239C5.68457 40.523 5.68887 40.5219 5.69318 40.521C5.76364 40.5067 5.83478 40.4943 5.90637 40.4829C5.91827 40.4809 5.93016 40.4786 5.94228 40.4767C6.00697 40.4669 6.07233 40.4592 6.13769 40.4518C6.15604 40.4498 6.17428 40.447 6.19275 40.4451C6.25584 40.4388 6.31951 40.4346 6.38317 40.4306C6.40334 40.4294 6.4235 40.4272 6.44366 40.4262C6.52704 40.422 6.61109 40.4199 6.69549 40.4199C7.16561 40.4199 7.5468 40.0388 7.5468 39.5686V33.396C7.5468 32.9258 7.16561 32.5447 6.69549 32.5447C6.22537 32.5447 5.84418 32.9258 5.84418 33.396V38.7708C4.40664 38.9527 3.0723 39.5938 2.02014 40.6213C1.90947 40.7294 1.80457 40.8417 1.70239 40.9559V9.25519C1.70239 6.79234 3.49518 4.74002 5.84407 4.3347V12.6841V29.9909V29.991C5.84407 30.4611 6.22526 30.8423 6.69537 30.8423C7.16549 30.8423 7.54668 30.4611 7.54668 29.991V29.9909V13.5354H32.2692L27.563 18.2416C27.2305 18.5742 27.2305 19.113 27.563 19.4455C27.8955 19.7779 28.4345 19.7779 28.7669 19.4455L34.9263 13.2861C34.9265 13.2858 34.9267 13.2856 34.9269 13.2855L40.4986 7.71377L44.4072 11.6225L43.9486 12.0811C43.9483 12.0814 43.9478 12.0818 43.9475 12.0821L26.7822 29.2476L22.8735 25.339L26.257 21.9555C26.5895 21.6229 26.5895 21.084 26.257 20.7515C25.9245 20.4192 25.3855 20.4192 25.0532 20.7515L21.0676 24.737C21.0463 24.7583 21.0264 24.7808 21.0077 24.8039C21.0014 24.8116 20.9959 24.8199 20.99 24.828C20.978 24.8439 20.9662 24.86 20.9552 24.8768C20.949 24.8865 20.9433 24.8965 20.9374 24.9066C20.928 24.9224 20.919 24.9385 20.9107 24.955C20.9053 24.9656 20.9004 24.9764 20.8954 24.9875C20.8878 25.0041 20.8808 25.0211 20.8743 25.0381C20.8721 25.0441 20.8691 25.0498 20.867 25.0558L19.2084 29.7541L18.0776 32.9576C18.0627 33.0002 18.0519 33.0435 18.0439 33.0871H15.2128C14.7426 33.0871 14.3615 33.4682 14.3615 33.9384C14.3615 34.4086 14.7426 34.7897 15.2128 34.7897H38.7882C39.2584 34.7897 39.6395 34.4086 39.6395 33.9384C39.6395 33.4682 39.2584 33.0871 38.7882 33.0871H21.8738L27.0655 31.2544C27.0698 31.2528 27.0739 31.2507 27.0782 31.2491C27.0983 31.2416 27.1182 31.2332 27.1378 31.2243C27.1456 31.2206 27.1534 31.2172 27.161 31.2135C27.1814 31.2033 27.2014 31.1921 27.2211 31.1801C27.2275 31.1762 27.2341 31.1727 27.2403 31.1688C27.2608 31.1556 27.2807 31.1412 27.3003 31.1261C27.3052 31.1223 27.3103 31.119 27.3151 31.1152C27.3387 31.0962 27.362 31.0756 27.3839 31.0537L44.9022 13.5355H52.2944V31.7224L40.1171 43.8998C39.7846 44.2324 39.7846 44.7712 40.1171 45.1037C40.1378 45.1245 40.1595 45.1439 40.1818 45.1622C40.3379 45.2894 40.5285 45.3531 40.7191 45.3531C40.9096 45.3531 41.1004 45.2894 41.2564 45.1622C41.2787 45.1441 41.3003 45.1245 41.321 45.1037C41.3214 45.1034 41.321 45.1037 41.3214 45.1034L56.2976 30.127V37.6378ZM25.2251 30.0983L22.7866 30.9591L21.162 29.3344L22.0228 26.8959L25.2251 30.0983Z" fill="white"/>
</svg>
