<svg width="54" height="58" viewBox="0 0 54 58" fill="none" xmlns="http://www.w3.org/2000/svg">
<g clip-path="url(#clip0)">
<path d="M34.152 37.7C34.152 37.1665 33.7494 36.7334 33.2533 36.7334C32.7573 36.7334 32.3546 37.1665 32.3546 37.7V39.6334C32.3546 40.167 32.7573 40.6 33.2533 40.6C33.7494 40.6 34.152 40.167 34.152 39.6334V37.7Z" fill="#1B345C" fill-opacity="0.8"/>
<path d="M33.2532 48.333C32.7571 48.333 32.3545 48.7661 32.3545 49.2996V53.1663C32.3545 53.6998 32.7571 54.1329 33.2532 54.1329C33.7492 54.1329 34.1519 53.6998 34.1519 53.1663V49.2996C34.152 48.7661 33.7493 48.333 33.2532 48.333Z" fill="#1B345C" fill-opacity="0.8"/>
<path d="M37.7469 26.1004C37.7469 25.5669 37.3443 25.1338 36.8482 25.1338C36.3522 25.1338 35.9495 25.5669 35.9495 26.1004V28.0338C35.9495 28.5673 36.3522 29.0004 36.8482 29.0004C37.3443 29.0004 37.7469 28.5673 37.7469 28.0338V26.1004Z" fill="#1B345C" fill-opacity="0.8"/>
<path d="M34.152 31.9002C34.152 31.3667 33.7494 30.9336 33.2533 30.9336C32.7573 30.9336 32.3546 31.3667 32.3546 31.9002V33.8336C32.3546 34.3671 32.7573 34.8002 33.2533 34.8002C33.7494 34.8002 34.152 34.3671 34.152 33.8336V31.9002Z" fill="#1B345C" fill-opacity="0.8"/>
<path d="M34.152 43.4998C34.152 42.9663 33.7494 42.5332 33.2533 42.5332C32.7572 42.5332 32.3545 42.9663 32.3545 43.4998V45.4332C32.3545 45.9668 32.7571 46.3998 33.2532 46.3998C33.7492 46.3998 34.1519 45.9668 34.1519 45.4332V43.4998H34.152Z" fill="#1B345C" fill-opacity="0.8"/>
<path d="M37.7469 31.9002C37.7469 31.3667 37.3443 30.9336 36.8482 30.9336C36.3522 30.9336 35.9495 31.3667 35.9495 31.9002V33.8336C35.9495 34.3671 36.3522 34.8002 36.8482 34.8002C37.3443 34.8002 37.7469 34.3671 37.7469 33.8336V31.9002Z" fill="#1B345C" fill-opacity="0.8"/>
<path d="M30.557 26.1004C30.557 25.5669 30.1543 25.1338 29.6583 25.1338C29.1622 25.1338 28.7596 25.5669 28.7596 26.1004V28.0338C28.7596 28.5673 29.1622 29.0004 29.6583 29.0004C30.1543 29.0004 30.557 28.5673 30.557 28.0338V26.1004Z" fill="#1B345C" fill-opacity="0.8"/>
<path d="M34.152 26.1004C34.152 25.5669 33.7494 25.1338 33.2533 25.1338C32.7573 25.1338 32.3546 25.5669 32.3546 26.1004V28.0338C32.3546 28.5673 32.7573 29.0004 33.2533 29.0004C33.7494 29.0004 34.152 28.5673 34.152 28.0338V26.1004Z" fill="#1B345C" fill-opacity="0.8"/>
<path d="M37.7469 16.4332V14.4998C37.7469 13.9663 37.3443 13.5332 36.8482 13.5332C36.3522 13.5332 35.9495 13.9663 35.9495 14.4998V16.4332C35.9495 16.9668 36.3522 17.3998 36.8482 17.3998C37.3443 17.3998 37.7469 16.9668 37.7469 16.4332Z" fill="#1B345C" fill-opacity="0.8"/>
<path d="M30.557 31.9002C30.557 31.3667 30.1543 30.9336 29.6583 30.9336C29.1622 30.9336 28.7596 31.3667 28.7596 31.9002V33.8336C28.7596 34.3671 29.1622 34.8002 29.6583 34.8002C30.1543 34.8002 30.557 34.3671 30.557 33.8336V31.9002Z" fill="#1B345C" fill-opacity="0.8"/>
<path d="M41.3418 14.4998C41.3418 13.9663 40.9391 13.5332 40.4431 13.5332C39.947 13.5332 39.5444 13.9663 39.5444 14.4998V16.4332C39.5444 16.9668 39.947 17.3998 40.4431 17.3998C40.9391 17.3998 41.3418 16.9668 41.3418 16.4332V14.4998Z" fill="#1B345C" fill-opacity="0.8"/>
<path d="M29.6583 36.7334C29.1622 36.7334 28.7596 37.1665 28.7596 37.7V39.6334C28.7596 40.167 29.1622 40.6 29.6583 40.6C30.1543 40.6 30.557 40.167 30.557 39.6334V37.7C30.557 37.1665 30.1543 36.7334 29.6583 36.7334Z" fill="#1B345C" fill-opacity="0.8"/>
<path d="M44.9368 43.4998C44.9368 42.9663 44.5342 42.5332 44.0381 42.5332C43.5421 42.5332 43.1393 42.9663 43.1393 43.4998V45.4332C43.1393 45.9668 43.542 46.3998 44.038 46.3998C44.5341 46.3998 44.9367 45.9668 44.9367 45.4332V43.4998H44.9368Z" fill="#1B345C" fill-opacity="0.8"/>
<path d="M44.038 48.333C43.542 48.333 43.1393 48.7661 43.1393 49.2996V53.1663C43.1393 53.6998 43.542 54.1329 44.038 54.1329C44.5341 54.1329 44.9367 53.6998 44.9367 53.1663V49.2996C44.9369 48.7661 44.5342 48.333 44.038 48.333Z" fill="#1B345C" fill-opacity="0.8"/>
<path d="M47.633 36.7334C47.137 36.7334 46.7343 37.1665 46.7343 37.7V39.6334C46.7343 40.167 47.137 40.6 47.633 40.6C48.1291 40.6 48.5317 40.167 48.5317 39.6334V37.7C48.5317 37.1665 48.1291 36.7334 47.633 36.7334Z" fill="#1B345C" fill-opacity="0.8"/>
<path d="M33.2532 17.3998C33.7493 17.3998 34.1519 16.9667 34.1519 16.4332V12.3548L43.1393 9.93808V26.0998C43.1393 26.5029 43.3721 26.8634 43.7226 27.0056L50.3292 29.6697V39.6332C50.3292 40.1667 50.7319 40.5998 51.2279 40.5998C51.724 40.5998 52.1266 40.1667 52.1266 39.6332V28.9998C52.1266 28.5967 51.8939 28.2362 51.5434 28.094L44.9367 25.4299V6.76643C44.9367 6.23288 44.5341 5.7998 44.038 5.7998C43.542 5.7998 43.1393 6.23288 43.1393 6.76643V7.94478L33.0349 10.6621C32.635 10.7693 32.3545 11.1561 32.3545 11.5997V16.4331C32.3545 16.9667 32.7571 17.3998 33.2532 17.3998Z" fill="#1B345C" fill-opacity="0.8"/>
<path d="M48.5317 31.9002C48.5317 31.3667 48.1291 30.9336 47.633 30.9336C47.137 30.9336 46.7343 31.3667 46.7343 31.9002V33.8336C46.7343 34.3671 47.137 34.8002 47.633 34.8002C48.1291 34.8002 48.5317 34.3671 48.5317 33.8336V31.9002Z" fill="#1B345C" fill-opacity="0.8"/>
<path d="M44.9368 31.9002C44.9368 31.3667 44.5342 30.9336 44.0381 30.9336C43.542 30.9336 43.1394 31.3667 43.1394 31.9002V33.8336C43.1394 34.3671 43.542 34.8002 44.0381 34.8002C44.5342 34.8002 44.9368 34.3671 44.9368 33.8336V31.9002Z" fill="#1B345C" fill-opacity="0.8"/>
<path d="M37.7469 43.4998C37.7469 42.9663 37.3443 42.5332 36.8482 42.5332C36.3522 42.5332 35.9495 42.9663 35.9495 43.4998V45.4332C35.9495 45.9668 36.3522 46.3998 36.8482 46.3998C37.3443 46.3998 37.7469 45.9668 37.7469 45.4332V43.4998Z" fill="#1B345C" fill-opacity="0.8"/>
<path d="M44.9368 37.7C44.9368 37.1665 44.5342 36.7334 44.0381 36.7334C43.542 36.7334 43.1394 37.1665 43.1394 37.7V39.6334C43.1394 40.167 43.542 40.6 44.0381 40.6C44.5342 40.6 44.9368 40.167 44.9368 39.6334V37.7Z" fill="#1B345C" fill-opacity="0.8"/>
<path d="M36.8482 48.333C36.3522 48.333 35.9495 48.7661 35.9495 49.2996V53.1663C35.9495 53.6998 36.3522 54.1329 36.8482 54.1329C37.3443 54.1329 37.7469 53.6998 37.7469 53.1663V49.2996C37.7469 48.7661 37.3443 48.333 36.8482 48.333Z" fill="#1B345C" fill-opacity="0.8"/>
<path d="M37.7469 37.7C37.7469 37.1665 37.3443 36.7334 36.8482 36.7334C36.3522 36.7334 35.9495 37.1665 35.9495 37.7V39.6334C35.9495 40.167 36.3522 40.6 36.8482 40.6C37.3443 40.6 37.7469 40.167 37.7469 39.6334V37.7Z" fill="#1B345C" fill-opacity="0.8"/>
<path d="M40.4431 54.1337C40.9392 54.1337 41.3418 53.7006 41.3418 53.1671V22.2337C41.3418 21.79 41.0605 21.4033 40.6614 21.2961L26.2817 17.4293C26.0148 17.3568 25.728 17.4225 25.5105 17.6052C25.2921 17.788 25.1646 18.0692 25.1646 18.3669V39.6336C25.1646 40.1671 25.5672 40.6002 26.0633 40.6002C26.5593 40.6002 26.962 40.1671 26.962 39.6336V19.6053L39.5443 22.9887V53.1671C39.5444 53.7006 39.947 54.1337 40.4431 54.1337Z" fill="#1B345C" fill-opacity="0.8"/>
<path d="M19.7721 20.2996C19.7721 19.7661 19.3695 19.333 18.8734 19.333C18.3774 19.333 17.9747 19.7661 17.9747 20.2996V22.233C17.9747 22.7666 18.3774 23.1996 18.8734 23.1996C19.3695 23.1996 19.7721 22.7666 19.7721 22.233V20.2996Z" fill="#1B345C" fill-opacity="0.8"/>
<path d="M19.7721 14.4998C19.7721 13.9663 19.3695 13.5332 18.8734 13.5332C18.3774 13.5332 17.9747 13.9663 17.9747 14.4998V16.4332C17.9747 16.9668 18.3774 17.3998 18.8734 17.3998C19.3695 17.3998 19.7721 16.9668 19.7721 16.4332V14.4998Z" fill="#1B345C" fill-opacity="0.8"/>
<path d="M12.5823 43.4998C12.5823 42.9663 12.1797 42.5332 11.6836 42.5332C11.1875 42.5332 10.7848 42.9663 10.7848 43.4998V45.4332C10.7848 45.9668 11.1874 46.3998 11.6835 46.3998C12.1795 46.3998 12.5822 45.9668 12.5822 45.4332V43.4998H12.5823Z" fill="#1B345C" fill-opacity="0.8"/>
<path d="M4.49365 34.7997C4.98971 34.7997 5.39236 34.3666 5.39236 33.833V28.9997H14.3797V53.1663C14.3797 53.6998 14.7823 54.1329 15.2784 54.1329C15.7744 54.1329 16.1771 53.6998 16.1771 53.1663V28.033C16.1771 27.4995 15.7744 27.0664 15.2784 27.0664H4.49355C3.99749 27.0664 3.59485 27.4995 3.59485 28.033V33.833C3.59485 34.3666 3.99749 34.7997 4.49365 34.7997Z" fill="#1B345C" fill-opacity="0.8"/>
<path d="M14.3798 20.2996V22.233C14.3798 22.7666 14.7824 23.1996 15.2785 23.1996C15.7745 23.1996 16.1772 22.7666 16.1772 22.233V20.2996C16.1772 19.7661 15.7745 19.333 15.2785 19.333C14.7824 19.333 14.3798 19.7661 14.3798 20.2996Z" fill="#1B345C" fill-opacity="0.8"/>
<path d="M19.7721 8.70003C19.7721 8.16647 19.3695 7.7334 18.8734 7.7334C18.3774 7.7334 17.9747 8.16647 17.9747 8.70003V10.6334C17.9747 11.167 18.3774 11.6 18.8734 11.6C19.3695 11.6 19.7721 11.167 19.7721 10.6334V8.70003Z" fill="#1B345C" fill-opacity="0.8"/>
<path d="M11.6835 48.333C11.1874 48.333 10.7848 48.7661 10.7848 49.2996V53.1663C10.7848 53.6998 11.1874 54.1329 11.6835 54.1329C12.1796 54.1329 12.5822 53.6998 12.5822 53.1663V49.2996C12.5823 48.7661 12.1797 48.333 11.6835 48.333Z" fill="#1B345C" fill-opacity="0.8"/>
<path d="M53.0254 56.0668H51.2279V50.1295C52.7737 49.6974 53.9241 48.1961 53.9241 46.4C53.9241 44.2675 52.3118 42.5334 50.3292 42.5334C48.3467 42.5334 46.7343 44.2676 46.7343 46.4C46.7343 48.1961 47.8847 49.6973 49.4305 50.1295V56.0668H26.9621V52.1025C29.0102 51.653 30.557 49.7013 30.557 47.3668C30.557 44.7017 28.5411 42.5334 26.0633 42.5334C23.5855 42.5334 21.5695 44.7016 21.5695 47.3668C21.5695 49.7013 23.1163 51.653 25.1645 52.1025V56.0668H5.39241V46.3025C7.44058 45.853 8.98732 43.9013 8.98732 41.5668C8.98732 38.9017 6.97148 36.7334 4.49361 36.7334C2.01584 36.7335 0 38.9017 0 41.5668C0 43.9013 1.54674 45.853 3.59491 46.3025V56.0668H0.8987C0.402641 56.0668 0 56.4998 0 57.0334C0 57.567 0.402641 58.0001 0.8987 58.0001H53.0253C53.5214 58.0001 53.924 57.5671 53.924 57.0335C53.924 56.5 53.5215 56.0668 53.0254 56.0668ZM1.79751 41.5668C1.79751 39.9679 3.00722 38.6668 4.49371 38.6668C5.98021 38.6668 7.18992 39.9679 7.18992 41.5668C7.18992 43.1656 5.98021 44.4668 4.49371 44.4668C3.00722 44.4668 1.79751 43.1656 1.79751 41.5668ZM23.3672 47.3668C23.3672 45.7679 24.5769 44.4668 26.0634 44.4668C27.5499 44.4668 28.7596 45.7679 28.7596 47.3668C28.7596 48.9656 27.5499 50.2668 26.0634 50.2668C24.5769 50.2668 23.3672 48.9656 23.3672 47.3668ZM48.5317 46.4001C48.5317 45.3339 49.3378 44.4668 50.3292 44.4668C51.3206 44.4668 52.1267 45.3338 52.1267 46.4001C52.1267 47.4663 51.3206 48.3335 50.3292 48.3335C49.3378 48.3335 48.5317 47.4663 48.5317 46.4001Z" fill="#1B345C" fill-opacity="0.8"/>
<path d="M7.18994 49.2996V53.1663C7.18994 53.6998 7.59258 54.1329 8.08864 54.1329C8.5847 54.1329 8.98734 53.6998 8.98734 53.1663V49.2996C8.98734 48.7661 8.5847 48.333 8.08864 48.333C7.59258 48.333 7.18994 48.7661 7.18994 49.2996Z" fill="#1B345C" fill-opacity="0.8"/>
<path d="M12.5823 31.9002C12.5823 31.3667 12.1797 30.9336 11.6836 30.9336C11.1876 30.9336 10.7849 31.3667 10.7849 31.9002V33.8336C10.7849 34.3671 11.1876 34.8002 11.6836 34.8002C12.1797 34.8002 12.5823 34.3671 12.5823 33.8336V31.9002Z" fill="#1B345C" fill-opacity="0.8"/>
<path d="M12.5823 37.7C12.5823 37.1665 12.1797 36.7334 11.6836 36.7334C11.1876 36.7334 10.7849 37.1665 10.7849 37.7V39.6334C10.7849 40.167 11.1876 40.6 11.6836 40.6C12.1797 40.6 12.5823 40.167 12.5823 39.6334V37.7Z" fill="#1B345C" fill-opacity="0.8"/>
<path d="M7.18994 31.9002V33.8336C7.18994 34.3671 7.59258 34.8002 8.08864 34.8002C8.5847 34.8002 8.98734 34.3671 8.98734 33.8336V31.9002C8.98734 31.3667 8.5847 30.9336 8.08864 30.9336C7.59258 30.9336 7.18994 31.3667 7.18994 31.9002Z" fill="#1B345C" fill-opacity="0.8"/>
<path d="M19.7721 37.7C19.7721 37.1665 19.3695 36.7334 18.8734 36.7334C18.3774 36.7334 17.9747 37.1665 17.9747 37.7V39.6334C17.9747 40.167 18.3774 40.6 18.8734 40.6C19.3695 40.6 19.7721 40.167 19.7721 39.6334V37.7Z" fill="#1B345C" fill-opacity="0.8"/>
<path d="M23.3672 26.1004C23.3672 25.5669 22.9645 25.1338 22.4685 25.1338C21.9724 25.1338 21.5698 25.5669 21.5698 26.1004V28.0338C21.5698 28.5673 21.9724 29.0004 22.4685 29.0004C22.9645 29.0004 23.3672 28.5673 23.3672 28.0338V26.1004Z" fill="#1B345C" fill-opacity="0.8"/>
<path d="M23.3672 20.2996C23.3672 19.7661 22.9645 19.333 22.4685 19.333C21.9724 19.333 21.5698 19.7661 21.5698 20.2996V22.233C21.5698 22.7666 21.9724 23.1996 22.4685 23.1996C22.9645 23.1996 23.3672 22.7666 23.3672 22.233V20.2996Z" fill="#1B345C" fill-opacity="0.8"/>
<path d="M23.3672 31.9002C23.3672 31.3667 22.9645 30.9336 22.4685 30.9336C21.9724 30.9336 21.5698 31.3667 21.5698 31.9002V33.8336C21.5698 34.3671 21.9724 34.8002 22.4685 34.8002C22.9645 34.8002 23.3672 34.3671 23.3672 33.8336V31.9002Z" fill="#1B345C" fill-opacity="0.8"/>
<path d="M22.4683 36.7334C21.9723 36.7334 21.5696 37.1665 21.5696 37.7V39.6334C21.5696 40.167 21.9723 40.6 22.4683 40.6C22.9644 40.6 23.367 40.167 23.367 39.6334V37.7C23.3671 37.1665 22.9645 36.7334 22.4683 36.7334Z" fill="#1B345C" fill-opacity="0.8"/>
<path d="M23.3672 14.4998C23.3672 13.9663 22.9645 13.5332 22.4685 13.5332C21.9724 13.5332 21.5698 13.9663 21.5698 14.4998V16.4332C21.5698 16.9668 21.9724 17.3998 22.4685 17.3998C22.9645 17.3998 23.3672 16.9668 23.3672 16.4332V14.4998Z" fill="#1B345C" fill-opacity="0.8"/>
<path d="M19.7721 43.4998C19.7721 42.9663 19.3695 42.5332 18.8734 42.5332C18.3774 42.5332 17.9747 42.9663 17.9747 43.4998V45.4332C17.9747 45.9668 18.3774 46.3998 18.8734 46.3998C19.3695 46.3998 19.7721 45.9668 19.7721 45.4332V43.4998Z" fill="#1B345C" fill-opacity="0.8"/>
<path d="M11.6835 25.1334C12.1796 25.1334 12.5822 24.7003 12.5822 24.1667V17.0307L15.6801 15.3651C15.9848 15.2008 16.1771 14.8664 16.1771 14.5V6.39745L20.6708 3.98082L25.1645 6.39745V14.5C25.1645 15.0336 25.5672 15.4666 26.0632 15.4666C26.5593 15.4666 26.962 15.0336 26.962 14.5V5.8C26.962 5.43365 26.7697 5.09913 26.465 4.93487L21.5696 2.30255V0.966629C21.5696 0.433074 21.167 0 20.6709 0C20.1749 0 19.7722 0.433074 19.7722 0.966629V2.30255L14.8768 4.93476C14.5721 5.09913 14.3798 5.43354 14.3798 5.79989V13.9024L11.2819 15.568C10.9772 15.7324 10.7849 16.0668 10.7849 16.4331V24.1665C10.7848 24.7003 11.1874 25.1334 11.6835 25.1334Z" fill="#1B345C" fill-opacity="0.8"/>
<path d="M19.7721 31.9002C19.7721 31.3667 19.3695 30.9336 18.8734 30.9336C18.3774 30.9336 17.9747 31.3667 17.9747 31.9002V33.8336C17.9747 34.3671 18.3774 34.8002 18.8734 34.8002C19.3695 34.8002 19.7721 34.3671 19.7721 33.8336V31.9002Z" fill="#1B345C" fill-opacity="0.8"/>
<path d="M18.8734 48.333C18.3774 48.333 17.9747 48.7661 17.9747 49.2996V53.1663C17.9747 53.6998 18.3774 54.1329 18.8734 54.1329C19.3695 54.1329 19.7721 53.6998 19.7721 53.1663V49.2996C19.7721 48.7661 19.3695 48.333 18.8734 48.333Z" fill="#1B345C" fill-opacity="0.8"/>
<path d="M23.3672 8.70003C23.3672 8.16647 22.9645 7.7334 22.4685 7.7334C21.9724 7.7334 21.5698 8.16647 21.5698 8.70003V10.6334C21.5698 11.167 21.9724 11.6 22.4685 11.6C22.9645 11.6 23.3672 11.167 23.3672 10.6334V8.70003Z" fill="#1B345C" fill-opacity="0.8"/>
<path d="M19.7721 26.1004C19.7721 25.5669 19.3695 25.1338 18.8734 25.1338C18.3774 25.1338 17.9747 25.5669 17.9747 26.1004V28.0338C17.9747 28.5673 18.3774 29.0004 18.8734 29.0004C19.3695 29.0004 19.7721 28.5673 19.7721 28.0338V26.1004Z" fill="#1B345C" fill-opacity="0.8"/>
</g>
<defs>
<clipPath id="clip0">
<rect width="53.9241" height="58" fill="white"/>
</clipPath>
</defs>
</svg>
