<svg xmlns="http://www.w3.org/2000/svg" width="18" height="18" viewBox="0 0 18 18"><g><g><g><g><g><g><path fill="#fff" fill-opacity=".9" d="M18 6.9v10.2a.89.89 0 0 1-.176.53l-.004.008-.008.007A.896.896 0 0 1 17.1 18H.9a.896.896 0 0 1-.71-.354l-.01-.008-.004-.008A.89.89 0 0 1 0 17.1V6.898c0-.006.004-.011.004-.018a.284.284 0 0 1 .012-.06.296.296 0 0 1 .017-.051.268.268 0 0 1 .03-.046.282.282 0 0 1 .04-.047c.005-.004.007-.01.012-.014l2.884-2.24V2.098a.9.9 0 0 1 .9-.9h3.252L8.453.189a.89.89 0 0 1 1.094 0l1.302 1.01h3.25a.9.9 0 0 1 .9.9v2.322l2.886 2.241c.005.004.007.01.012.014.015.014.028.03.04.047.012.014.022.03.03.046a.303.303 0 0 1 .017.051c.006.02.01.04.012.061 0 .007.004.012.004.018zM8.13 1.198h1.74L9.177.662a.288.288 0 0 0-.357 0zM17.023 17.4l-7.847-6.094a.288.288 0 0 0-.357 0L.975 17.4zm.376-.468zm0 0V7.356l-4.925 3.825a.3.3 0 1 1-.368-.474L17.11 6.82 15 5.181v2.318a.3.3 0 0 1-.6 0V2.1a.3.3 0 0 0-.3-.3H3.9a.3.3 0 0 0-.3.3v5.4a.3.3 0 1 1-.6 0V5.181L.888 6.821 5.883 10.7a.3.3 0 0 1-.368.474L.6 7.356v9.576l7.854-6.1a.89.89 0 0 1 1.094 0z"/></g><g><path fill="#fff" fill-opacity=".9" d="M12.6 7.2V6A3.6 3.6 0 1 0 9 9.6.3.3 0 1 0 9 9a3 3 0 1 1 3-3v1.2a.6.6 0 1 1-1.2 0V6a.3.3 0 1 0-.6 0A1.2 1.2 0 1 1 9 4.8a.3.3 0 1 0 0-.6 1.8 1.8 0 1 0 1.213 3.127A1.197 1.197 0 0 0 12.6 7.2z"/></g></g></g></g></g></g></svg>