<svg xmlns="http://www.w3.org/2000/svg" width="18" height="18" viewBox="0 0 18 18"><g><g><g><g><g><g><path fill="#fff" fill-opacity=".9" d="M17.528 13.886c.47.314.612.942.32 1.427l-.916 1.523c-.281.479-.737.83-1.272.98-.46.124-.933.186-1.41.184-2.068 0-5.077-1.087-9.12-5.13C.048 7.788-.364 4.337.184 2.338c.15-.534.501-.99.98-1.271L2.688.15a1.058 1.058 0 0 1 1.426.321l2.43 3.644a1.064 1.064 0 0 1-.232 1.424L4.948 6.6a.454.454 0 0 0-.12.585l.11.201c.366.669.82 1.502 2.498 3.18 1.678 1.679 2.51 2.133 3.18 2.497l.202.112c.197.11.445.057.581-.123l1.061-1.364a1.063 1.063 0 0 1 1.424-.231zm-.197 1.12a.459.459 0 0 0-.139-.62l-3.643-2.43a.462.462 0 0 0-.618.1l-1.06 1.365a1.05 1.05 0 0 1-1.348.278l-.197-.109c-.703-.383-1.577-.86-3.317-2.6-1.74-1.74-2.217-2.614-2.6-3.317L4.3 7.476a1.05 1.05 0 0 1 .278-1.348l1.364-1.06a.462.462 0 0 0 .1-.619L4.935 2.788 3.615.806a.459.459 0 0 0-.619-.139l-1.523.914c-.346.202-.6.53-.71.916-.507 1.846-.087 5.07 4.792 9.949 4.878 4.879 8.102 5.299 9.948 4.792a1.55 1.55 0 0 0 .914-.71z"/></g><g><path fill="#fff" fill-opacity=".9" d="M10.2 3a5.105 5.105 0 0 1 5.1 5.1.3.3 0 1 0 .6 0 5.706 5.706 0 0 0-5.7-5.7.3.3 0 1 0 0 .6z"/></g><g><path fill="#fff" fill-opacity=".9" d="M10.2 4.8a3.304 3.304 0 0 1 3.3 3.3.3.3 0 1 0 .6 0 3.904 3.904 0 0 0-3.9-3.9.3.3 0 1 0 0 .6z"/></g><g><path fill="#fff" fill-opacity=".9" d="M10.2 6.6a1.502 1.502 0 0 1 1.5 1.5.3.3 0 0 0 .6 0A2.102 2.102 0 0 0 10.2 6a.3.3 0 1 0 0 .6z"/></g></g></g></g></g></g></svg>