<svg xmlns="http://www.w3.org/2000/svg" width="18" height="18" viewBox="0 0 18 18"><g><g><path fill="#fff" fill-opacity=".9" d="M17.49 8.927c-.282 0-.51.196-.51.436v7.765h-5.473v-4.874c0-.24-.228-.436-.51-.436H7.003c-.282 0-.51.195-.51.436v3.865c0 .24.228.436.51.436.281 0 .51-.195.51-.436v-3.43h2.974v4.44H1.02V6.46L9 .995l8.171 5.596c.22.15.54.12.717-.068.176-.188.14-.462-.08-.612L9.319.096a.579.579 0 0 0-.637 0L.191 5.91A.415.415 0 0 0 0 6.25v11.313c0 .24.228.436.51.436h16.98c.282 0 .51-.195.51-.436v-8.2c0-.241-.228-.437-.51-.437z"/></g></g></svg>